<svg xmlns="http://www.w3.org/2000/svg" xmlns:xlink="http://www.w3.org/1999/xlink" width="120" zoomAndPan="magnify" viewBox="0 0 90 89.999999" height="120" preserveAspectRatio="xMidYMid meet" version="1.0"><defs><clipPath id="fc92433fcd"><path d="M 8 8.382812 L 28 8.382812 L 28 20 L 8 20 Z M 8 8.382812 " clip-rule="nonzero"/></clipPath><clipPath id="4bba8591d7"><path d="M 32 56 L 77 56 L 77 81.882812 L 32 81.882812 Z M 32 56 " clip-rule="nonzero"/></clipPath><clipPath id="bed7dc5075"><path d="M 33 75 L 42 75 L 42 81.882812 L 33 81.882812 Z M 33 75 " clip-rule="nonzero"/></clipPath><clipPath id="9b70409a28"><path d="M 41 61 L 76 61 L 76 81.882812 L 41 81.882812 Z M 41 61 " clip-rule="nonzero"/></clipPath></defs><path fill="#123549" d="M 89.855469 38.527344 L 56.804688 21.636719 L 50.339844 15.628906 L 50.339844 11.179688 L 89.855469 34.078125 L 89.914062 35.363281 L 89.914062 37.132812 L 89.855469 38.527344 " fill-opacity="1" fill-rule="nonzero"/><path fill="#164058" d="M 87.140625 43.246094 L 63.792969 33.996094 L 47.621094 20.347656 L 50.339844 15.628906 L 89.855469 38.527344 L 89.480469 39.300781 L 87.363281 42.980469 L 87.140625 43.246094 " fill-opacity="1" fill-rule="nonzero"/><path fill="#285e79" d="M 12.726562 40.570312 L 47.621094 20.347656 L 87.140625 43.246094 L 42.339844 69.28125 L 39.023438 67.398438 L 8.792969 46.125 L 12.726562 40.570312 " fill-opacity="1" fill-rule="nonzero"/><path fill="#668c9f" d="M 65.03125 47.46875 L 54.9375 41.617188 L 54.082031 40.589844 L 65.03125 46.9375 L 72.152344 42.8125 L 72.621094 43.070312 L 65.03125 47.46875 M 72.6875 43.03125 L 72.292969 42.730469 L 76.753906 40.144531 L 61.925781 31.554688 L 53.808594 36.257812 L 53.539062 36.183594 L 53.539062 35.882812 L 61.925781 31.023438 L 77.667969 40.144531 L 72.6875 43.03125 M 50.777344 39.207031 L 50.371094 38.972656 L 50.582031 38.972656 L 50.777344 39.207031 " fill-opacity="1" fill-rule="nonzero"/><path fill="#668c9f" d="M 48.117188 37.664062 L 46.640625 36.8125 L 48.164062 35.929688 L 48.796875 36.296875 L 48.796875 37.269531 L 48.117188 37.664062 M 49.609375 35.347656 L 49.390625 35.21875 L 59.28125 29.488281 L 60.753906 30.34375 L 52.421875 35.171875 L 52.148438 35.011719 L 50.1875 35.011719 L 49.609375 35.347656 " fill-opacity="1" fill-rule="nonzero"/><path fill="#668c9f" d="M 65.0625 45.65625 L 63.960938 45.015625 L 69.023438 42.085938 L 70.320312 42.449219 L 70.351562 42.410156 L 70.503906 42.5 L 65.0625 45.65625 " fill-opacity="1" fill-rule="nonzero"/><path fill="#668c9f" d="M 62.871094 44.382812 L 61.769531 43.746094 L 66.058594 41.257812 L 67.546875 41.671875 L 62.871094 44.382812 M 69.386719 40.609375 L 67.894531 40.191406 L 71.210938 38.269531 L 72.316406 38.910156 L 69.386719 40.609375 " fill-opacity="1" fill-rule="nonzero"/><path fill="#668c9f" d="M 60.664062 43.105469 L 59.5625 42.46875 L 63.082031 40.425781 L 64.570312 40.84375 L 60.664062 43.105469 M 66.410156 39.777344 L 64.921875 39.363281 L 69.007812 36.996094 L 70.109375 37.632812 L 66.410156 39.777344 " fill-opacity="1" fill-rule="nonzero"/><path fill="#f6f6f6" d="M 32.582031 52.558594 L 34.175781 53.484375 L 34.175781 53.589844 L 41.457031 57.8125 L 51.761719 57.8125 L 59.042969 53.589844 L 59.042969 47.621094 L 51.761719 43.398438 L 51.574219 43.402344 L 49.980469 42.476562 L 52.421875 42.476562 L 60.640625 47.234375 L 60.640625 53.976562 L 52.421875 58.738281 L 40.796875 58.738281 L 32.578125 53.976562 L 32.582031 52.558594 M 32.578125 49.941406 L 34.175781 50.863281 L 34.175781 53.269531 L 32.578125 52.34375 L 32.578125 49.941406 M 32.582031 47.238281 L 40.796875 42.476562 L 45.089844 42.476562 L 46.6875 43.402344 L 41.457031 43.398438 L 34.175781 47.621094 L 34.175781 50.648438 L 32.578125 49.722656 L 32.582031 47.238281 M 37.367188 52.71875 L 37.367188 52.824219 L 42.78125 55.960938 L 50.433594 55.960938 L 55.851562 52.824219 L 55.851562 48.386719 L 50.4375 45.25 L 50.253906 45.25 L 47.582031 43.703125 L 51.542969 43.703125 L 58.519531 47.746094 L 58.519531 53.464844 L 51.542969 57.507812 L 41.671875 57.507812 L 34.699219 53.464844 L 34.699219 51.167969 L 37.367188 52.71875 M 50.21875 45.554688 L 55.328125 48.515625 L 55.328125 52.695312 L 50.21875 55.65625 L 43 55.65625 L 37.894531 52.699219 L 37.894531 48.515625 L 43 45.554688 L 50.21875 45.554688 M 42.78125 45.25 L 37.367188 48.386719 L 37.367188 52.5 L 34.695312 50.953125 L 34.699219 47.75 L 41.675781 43.707031 L 47.207031 43.707031 L 49.878906 45.25 L 42.78125 45.25 M 49.605469 42.476562 L 51.203125 43.402344 L 47.054688 43.398438 L 45.460938 42.472656 L 49.605469 42.476562 M 13.460938 43.21875 L 32.054688 53.992188 L 32.050781 54.101562 L 40.578125 59.042969 L 52.636719 59.042969 L 61.167969 54.097656 L 61.164062 47.113281 L 52.636719 42.171875 L 52.453125 42.171875 L 33.859375 31.394531 L 33.671875 31.5 L 52.082031 42.171875 L 49.453125 42.167969 L 37.125 35.027344 L 36.941406 35.136719 L 49.082031 42.171875 L 44.933594 42.171875 L 39.035156 38.753906 L 38.851562 38.859375 L 39.792969 39.402344 L 38.691406 39.402344 L 38.691406 39.558594 L 39.34375 39.558594 L 27.539062 46.398438 L 27.542969 46.015625 L 27.28125 46.015625 L 27.28125 46.65625 L 28.386719 46.65625 L 28.386719 46.503906 L 27.730469 46.503906 L 39.53125 39.664062 L 39.535156 40.042969 L 39.792969 40.042969 L 39.792969 39.40625 L 44.566406 42.171875 L 40.578125 42.171875 L 32.050781 47.109375 L 32.050781 49.417969 L 27.28125 46.65625 L 26.335938 46.109375 L 26.152344 46.21875 L 32.050781 49.636719 L 32.050781 52.039062 L 20.554688 45.378906 L 21.640625 45.378906 L 21.640625 45.226562 L 20.988281 45.226562 L 37.3125 35.761719 L 37.308594 36.144531 L 37.574219 36.148438 L 37.574219 35.507812 L 36.472656 35.507812 L 36.472656 35.660156 L 37.125 35.660156 L 20.804688 45.117188 L 20.804688 44.738281 L 20.542969 44.738281 L 20.539062 45.367188 L 19.910156 45.003906 L 19.722656 45.109375 L 32.050781 52.253906 L 32.054688 53.777344 L 14.496094 43.605469 L 15.59375 43.605469 L 15.589844 43.453125 L 14.9375 43.453125 L 34.257812 32.257812 L 34.257812 32.636719 L 34.519531 32.640625 L 34.515625 32 L 33.414062 32 L 33.414062 32.148438 L 34.074219 32.152344 L 14.753906 43.34375 L 14.75 42.964844 L 14.488281 42.964844 L 14.492188 43.601562 L 13.640625 43.109375 L 13.460938 43.21875 " fill-opacity="1" fill-rule="nonzero"/><path fill="#9f9891" d="M 87.191406 43.363281 L 42.296875 69.378906 L 39.507812 67.761719 L 39.507812 63.1875 L 42.296875 58.335938 L 44.929688 56.8125 L 44.933594 56.960938 L 42.355469 58.457031 L 39.636719 63.175781 L 39.636719 67.628906 L 42.355469 69.199219 L 87.140625 43.246094 L 89.855469 38.527344 L 89.855469 34.078125 L 87.140625 32.503906 L 84.5625 33.996094 L 84.5625 33.847656 L 87.191406 32.324219 L 89.984375 33.941406 L 89.984375 38.515625 L 87.191406 43.363281 " fill-opacity="1" fill-rule="nonzero"/><path fill="#cdcdcd" d="M 39.507812 67.761719 L -0.0078125 44.863281 L -0.00390625 40.289062 L 36.710938 59.246094 L 39.507812 63.1875 L 39.507812 67.761719 " fill-opacity="1" fill-rule="nonzero"/><path fill="#dcdad8" d="M 39.507812 63.1875 L -0.00390625 40.289062 L 2.785156 35.441406 L 38.214844 54.601562 L 42.296875 58.335938 L 39.507812 63.1875 " fill-opacity="1" fill-rule="nonzero"/><path fill="#f0ebe5" d="M 42.296875 58.335938 L 2.785156 35.441406 L 5.417969 33.914062 L 44.929688 56.8125 L 42.296875 58.335938 " fill-opacity="1" fill-rule="nonzero"/><path fill="#b1aba3" d="M 84.5625 33.996094 L 45.046875 11.097656 L 45.046875 10.949219 L 47.757812 11.773438 L 84.5625 33.847656 L 84.5625 33.996094 " fill-opacity="1" fill-rule="nonzero"/><path fill="#f0ebe5" d="M 84.5625 33.847656 L 45.046875 10.949219 L 47.679688 9.425781 L 87.191406 32.324219 L 84.5625 33.847656 " fill-opacity="1" fill-rule="nonzero"/><path fill="#b2b2b2" d="M 17.171875 37.996094 L 4.386719 30.585938 L 17.082031 23.230469 L 29.867188 30.636719 L 17.171875 37.996094 " fill-opacity="1" fill-rule="nonzero"/><path fill="#1c4254" d="M 19.152344 39.144531 L 17.171875 37.996094 L 29.867188 30.636719 L 31.851562 31.785156 L 19.152344 39.144531 " fill-opacity="1" fill-rule="nonzero"/><path fill="#b1aba3" d="M 21.054688 25.894531 L 9.066406 32.84375 L 4.75 25.335938 L 16.738281 18.390625 L 21.054688 25.894531 " fill-opacity="1" fill-rule="nonzero"/><path fill="#9f9891" d="M 16.738281 18.390625 L 4.75 25.335938 L 4.75 18.347656 L 16.738281 11.398438 L 16.738281 18.390625 " fill-opacity="1" fill-rule="nonzero"/><path fill="#9f9891" d="M 18.3125 18.609375 L 6.324219 25.558594 L 6.324219 20.082031 L 18.3125 13.132812 L 18.3125 18.609375 " fill-opacity="1" fill-rule="nonzero"/><path fill="#b1aba3" d="M 23.171875 27.058594 L 11.183594 34.007812 L 6.324219 25.558594 L 18.3125 18.609375 L 23.171875 27.058594 " fill-opacity="1" fill-rule="nonzero"/><path fill="#e2ddd9" d="M 27.035156 29.296875 L 15.046875 36.242188 L 11.183594 34.007812 L 23.171875 27.058594 L 27.035156 29.296875 " fill-opacity="1" fill-rule="nonzero"/><path fill="#9f9891" d="M 19.769531 18.988281 L 7.785156 25.9375 L 7.785156 21.859375 L 19.769531 14.910156 L 19.769531 18.988281 " fill-opacity="1" fill-rule="nonzero"/><path fill="#b1aba3" d="M 23.511719 25.496094 L 11.523438 32.445312 L 7.785156 25.9375 L 19.769531 18.988281 L 23.511719 25.496094 " fill-opacity="1" fill-rule="nonzero"/><path fill="#e2ddd9" d="M 26.378906 27.15625 L 14.394531 34.105469 L 11.523438 32.445312 L 23.511719 25.496094 L 26.378906 27.15625 " fill-opacity="1" fill-rule="nonzero"/><path fill="#9f9891" d="M 21.230469 19.328125 L 9.242188 26.277344 L 9.242188 23.601562 L 21.230469 16.652344 L 21.230469 19.328125 " fill-opacity="1" fill-rule="nonzero"/><path fill="#b1aba3" d="M 24.15625 24.414062 L 12.164062 31.359375 L 9.242188 26.277344 L 21.230469 19.328125 L 24.15625 24.414062 " fill-opacity="1" fill-rule="nonzero"/><path fill="#e2ddd9" d="M 25.777344 25.355469 L 13.785156 32.300781 L 12.164062 31.359375 L 24.15625 24.414062 L 25.777344 25.355469 " fill-opacity="1" fill-rule="nonzero"/><path fill="#9f9891" d="M 22.644531 19.625 L 10.652344 26.570312 L 10.652344 25.238281 L 22.644531 18.292969 L 22.644531 19.625 " fill-opacity="1" fill-rule="nonzero"/><path fill="#b1aba3" d="M 24.726562 23.246094 L 12.738281 30.195312 L 10.652344 26.570312 L 22.644531 19.625 L 24.726562 23.246094 " fill-opacity="1" fill-rule="nonzero"/><path fill="#e2ddd9" d="M 25.171875 23.503906 L 13.183594 30.453125 L 12.738281 30.195312 L 24.726562 23.246094 L 25.171875 23.503906 " fill-opacity="1" fill-rule="nonzero"/><path fill="#e2ddd9" d="M 24.753906 18.152344 L 12.765625 25.097656 L 11.316406 24.257812 L 23.304688 17.3125 L 24.753906 18.152344 " fill-opacity="1" fill-rule="nonzero"/><path fill="#b1aba3" d="M 25.78125 19.9375 L 13.792969 26.882812 L 12.765625 25.097656 L 24.753906 18.152344 L 25.78125 19.9375 " fill-opacity="1" fill-rule="nonzero"/><path fill="#9f9891" d="M 25.78125 21.617188 L 13.792969 28.5625 L 13.792969 26.882812 L 25.78125 19.9375 L 25.78125 21.617188 " fill-opacity="1" fill-rule="nonzero"/><path fill="#e2ddd9" d="M 25.324219 16.710938 L 13.332031 23.65625 L 10.722656 22.144531 L 22.710938 15.195312 L 25.324219 16.710938 " fill-opacity="1" fill-rule="nonzero"/><path fill="#b1aba3" d="M 27.167969 19.917969 L 15.179688 26.867188 L 13.332031 23.65625 L 25.324219 16.710938 L 27.167969 19.917969 " fill-opacity="1" fill-rule="nonzero"/><path fill="#9f9891" d="M 27.167969 22.945312 L 15.179688 29.890625 L 15.179688 26.867188 L 27.167969 19.917969 L 27.167969 22.945312 " fill-opacity="1" fill-rule="nonzero"/><path fill="#e2ddd9" d="M 25.925781 15.175781 L 13.9375 22.121094 L 10.117188 19.90625 L 22.105469 12.960938 L 25.925781 15.175781 " fill-opacity="1" fill-rule="nonzero"/><path fill="#b1aba3" d="M 28.628906 19.871094 L 16.640625 26.816406 L 13.9375 22.121094 L 25.925781 15.175781 L 28.628906 19.871094 " fill-opacity="1" fill-rule="nonzero"/><path fill="#9f9891" d="M 28.628906 24.296875 L 16.640625 31.246094 L 16.640625 26.816406 L 28.628906 19.871094 L 28.628906 24.296875 " fill-opacity="1" fill-rule="nonzero"/><path fill="#e2ddd9" d="M 26.53125 13.601562 L 14.542969 20.546875 L 9.515625 17.632812 L 21.503906 10.6875 L 26.53125 13.601562 " fill-opacity="1" fill-rule="nonzero"/><path fill="#b1aba3" d="M 30.085938 19.78125 L 18.097656 26.726562 L 14.542969 20.546875 L 26.53125 13.601562 L 30.085938 19.78125 " fill-opacity="1" fill-rule="nonzero"/><path fill="#9f9891" d="M 30.085938 25.609375 L 18.097656 32.554688 L 18.097656 26.726562 L 30.085938 19.78125 L 30.085938 25.609375 " fill-opacity="1" fill-rule="nonzero"/><path fill="#9f9891" d="M 31.660156 27.210938 L 19.671875 34.15625 L 19.453125 30.59375 L 19.671875 26.820312 L 22.597656 23.015625 L 31.660156 19.875 L 31.660156 27.210938 " fill-opacity="1" fill-rule="nonzero"/><path fill="#b1aba3" d="M 31.660156 19.875 L 19.671875 26.820312 L 17.402344 23.140625 L 15.195312 19.035156 L 17.128906 15.625 L 27.183594 12.089844 L 31.660156 19.875 " fill-opacity="1" fill-rule="nonzero"/><g clip-path="url(#fc92433fcd)"><path fill="#e2ddd9" d="M 27.183594 12.089844 L 15.195312 19.035156 L 13.566406 18.371094 L 8.863281 15.367188 L 20.851562 8.421875 L 27.183594 12.089844 " fill-opacity="1" fill-rule="nonzero"/></g><path fill="#d4cdc3" d="M 15.195312 36.753906 L 11.03125 34.339844 L 5.957031 25.519531 L 5.960938 19.695312 L 9.515625 17.632812 L 14.542969 20.546875 L 18.097656 26.726562 L 18.097656 32.554688 L 14.542969 34.613281 L 11.371094 32.777344 L 7.417969 25.898438 L 7.417969 21.472656 L 10.117188 19.90625 L 13.9375 22.121094 L 16.640625 26.816406 L 16.640625 31.246094 L 13.9375 32.8125 L 12.015625 31.695312 L 8.875 26.242188 L 8.875 23.210938 L 10.722656 22.144531 L 13.332031 23.65625 L 15.179688 26.867188 L 15.179688 29.890625 L 13.332031 30.960938 L 12.585938 30.527344 L 10.289062 26.535156 L 10.289062 24.855469 L 11.316406 24.257812 L 12.765625 25.097656 L 13.792969 26.882812 L 13.792969 28.5625 L 12.820312 29.128906 L 12.5625 28.679688 L 13.429688 28.175781 L 13.429688 26.847656 L 12.617188 25.4375 L 11.464844 24.769531 L 10.652344 25.238281 L 10.652344 26.570312 L 12.738281 30.195312 L 13.183594 30.453125 L 14.816406 29.503906 L 14.816406 26.828125 L 13.183594 23.992188 L 10.875 22.652344 L 9.242188 23.601562 L 9.242188 26.277344 L 12.164062 31.359375 L 13.785156 32.300781 L 16.277344 30.859375 L 16.277344 26.78125 L 13.785156 22.457031 L 10.269531 20.417969 L 7.785156 21.859375 L 7.785156 25.9375 L 11.523438 32.445312 L 14.394531 34.105469 L 17.734375 32.167969 L 17.734375 26.691406 L 14.394531 20.882812 L 9.664062 18.144531 L 6.324219 20.082031 L 6.324219 25.558594 L 11.183594 34.007812 L 15.046875 36.242188 L 19.308594 33.773438 L 19.308594 26.785156 L 15.046875 19.371094 L 9.011719 15.875 L 4.75 18.347656 L 4.75 25.335938 L 9.066406 32.84375 L 8.808594 32.988281 L 4.386719 25.300781 L 4.386719 17.960938 L 8.863281 15.367188 L 15.195312 19.035156 L 19.671875 26.820312 L 19.671875 34.15625 L 15.195312 36.753906 " fill-opacity="1" fill-rule="nonzero"/><path fill="#b2b2b2" d="M 25.160156 64.859375 L 24.90625 64.707031 L 24.402344 64.414062 L 24.324219 64.425781 L 24.046875 64.265625 L 9.910156 56.089844 L 8.316406 54.5 L 11.082031 55.40625 L 25.21875 63.585938 L 25.496094 63.75 L 25.476562 63.792969 L 25.980469 64.085938 L 26.238281 64.234375 L 26.105469 64.523438 L 25.664062 64.78125 L 25.160156 64.859375 " fill-opacity="1" fill-rule="nonzero"/><path fill="#7f6a66" d="M 8.949219 54.222656 L 9.070312 54.085938 L 8.316406 53.886719 Z M 8.949219 54.222656 " fill-opacity="1" fill-rule="nonzero"/><path fill="#3c312e" d="M 8.867188 54.433594 L 8.929688 54.265625 L 8.316406 53.886719 Z M 8.867188 54.433594 " fill-opacity="1" fill-rule="nonzero"/><path fill="#64534d" d="M 8.867188 54.292969 L 8.9375 54.292969 L 8.949219 54.152344 L 8.316406 53.886719 L 8.867188 54.292969 " fill-opacity="1" fill-rule="nonzero"/><path fill="#ebc188" d="M 10.148438 55.722656 L 10.808594 55.222656 L 10.824219 54.546875 L 10.125 54.429688 L 8.949219 54.152344 L 8.867188 54.292969 L 9.753906 55.089844 L 10.148438 55.722656 " fill-opacity="1" fill-rule="nonzero"/><path fill="#c39a5a" d="M 10.148438 55.722656 L 10.148438 55.257812 L 8.867188 54.292969 L 8.867188 54.433594 L 10.148438 55.722656 " fill-opacity="1" fill-rule="nonzero"/><path fill="#f3e2b8" d="M 10.433594 54.777344 L 10.824219 54.546875 L 9.070312 54.085938 L 8.949219 54.152344 L 10.433594 54.777344 " fill-opacity="1" fill-rule="nonzero"/><path fill="#745853" d="M 22.617188 62.484375 L 22.898438 62 L 23.296875 61.769531 L 23.574219 61.933594 L 23.574219 62.386719 L 23.296875 62.878906 L 22.898438 63.109375 L 22.617188 62.945312 L 22.617188 62.484375 " fill-opacity="1" fill-rule="nonzero"/><path fill="#f7e577" d="M 22.898438 62 L 23.296875 61.769531 L 10.824219 54.546875 L 10.433594 54.777344 L 22.847656 62.007812 L 22.898438 62 " fill-opacity="1" fill-rule="nonzero"/><path fill="#dfb95c" d="M 22.617188 62.484375 L 22.898438 62 L 10.433594 54.777344 L 10.148438 55.257812 L 22.566406 62.511719 L 22.617188 62.484375 " fill-opacity="1" fill-rule="nonzero"/><path fill="#c8904a" d="M 22.617188 62.945312 L 22.617188 62.484375 L 10.148438 55.257812 L 10.148438 55.722656 L 22.617188 62.945312 " fill-opacity="1" fill-rule="nonzero"/><path fill="#d4cdc3" d="M 24.277344 63.449219 L 24.554688 62.960938 L 24.949219 62.726562 L 25.230469 62.894531 L 25.230469 63.355469 L 24.949219 63.835938 L 24.554688 64.066406 L 24.277344 63.90625 L 24.277344 63.449219 " fill-opacity="1" fill-rule="nonzero"/><path fill="#e2ddd9" d="M 24.554688 62.960938 L 24.949219 62.726562 L 23.296875 61.769531 L 22.898438 61.992188 L 24.503906 62.96875 L 24.554688 62.960938 " fill-opacity="1" fill-rule="nonzero"/><path fill="#cdcdcd" d="M 24.277344 63.449219 L 24.554688 62.960938 L 22.898438 61.992188 L 22.617188 62.484375 L 24.226562 63.46875 L 24.277344 63.449219 " fill-opacity="1" fill-rule="nonzero"/><path fill="#9f9891" d="M 24.277344 63.90625 L 24.277344 63.449219 L 22.617188 62.484375 L 22.617188 62.945312 L 24.277344 63.90625 " fill-opacity="1" fill-rule="nonzero"/><path fill="#be685c" d="M 25.113281 63.90625 L 25.375 63.460938 L 25.738281 63.25 L 25.996094 63.398438 L 25.996094 63.820312 L 25.738281 64.265625 L 25.375 64.480469 L 25.113281 64.332031 L 25.113281 63.90625 " fill-opacity="1" fill-rule="nonzero"/><path fill="#f8a18d" d="M 25.375 63.460938 L 25.738281 63.25 L 24.972656 62.808594 L 24.609375 63.019531 L 25.324219 63.46875 L 25.375 63.460938 " fill-opacity="1" fill-rule="nonzero"/><path fill="#d1786e" d="M 25.113281 63.90625 L 25.375 63.460938 L 24.609375 63.019531 L 24.355469 63.46875 L 25.070312 63.925781 L 25.113281 63.90625 " fill-opacity="1" fill-rule="nonzero"/><path fill="#a2475b" d="M 25.113281 64.332031 L 25.113281 63.90625 L 24.355469 63.46875 L 24.355469 63.886719 L 25.113281 64.332031 " fill-opacity="1" fill-rule="nonzero"/><path fill="#f65a51" d="M 21.472656 61.175781 L 21.867188 60.941406 L 21.261719 60.589844 L 20.863281 60.816406 L 21.421875 61.183594 L 21.472656 61.175781 " fill-opacity="1" fill-rule="nonzero"/><path fill="#c43f2f" d="M 21.195312 61.660156 L 21.472656 61.175781 L 20.863281 60.816406 L 20.582031 61.308594 L 21.144531 61.683594 L 21.195312 61.660156 " fill-opacity="1" fill-rule="nonzero"/><path fill="#861b13" d="M 21.195312 62.117188 L 21.195312 61.660156 L 20.582031 61.308594 L 20.582031 61.765625 L 21.195312 62.117188 " fill-opacity="1" fill-rule="nonzero"/><g clip-path="url(#4bba8591d7)"><path fill="#b2b2b2" d="M 41.910156 81.84375 L 32.710938 76.511719 L 66.832031 56.726562 L 76.027344 62.054688 L 41.910156 81.84375 " fill-opacity="1" fill-rule="nonzero"/></g><g clip-path="url(#bed7dc5075)"><path fill="#d4cdc3" d="M 41.910156 80.738281 L 41.90625 81.648438 L 33.054688 76.515625 L 33.054688 75.601562 L 41.910156 80.738281 " fill-opacity="1" fill-rule="nonzero"/></g><g clip-path="url(#9b70409a28)"><path fill="#9f9891" d="M 75.6875 61.144531 L 75.6875 62.054688 L 41.90625 81.648438 L 41.910156 80.738281 L 75.6875 61.144531 " fill-opacity="1" fill-rule="nonzero"/></g><path fill="#e2ddd9" d="M 75.6875 61.144531 L 66.832031 56.015625 L 33.054688 75.601562 L 41.910156 80.738281 L 75.6875 61.144531 " fill-opacity="1" fill-rule="nonzero"/><path fill="#d4cdc3" d="M 37.875 71.179688 L 37.089844 70.730469 L 37.089844 77.953125 L 37.875 78.410156 L 37.875 71.179688 " fill-opacity="1" fill-rule="nonzero"/><path fill="#d4cdc3" d="M 71.648438 51.589844 L 70.867188 51.136719 L 37.089844 70.730469 L 37.875 71.179688 L 71.648438 51.589844 " fill-opacity="1" fill-rule="nonzero"/><path fill="#9f9891" d="M 71.648438 51.589844 L 71.648438 58.816406 L 37.875 78.410156 L 37.875 71.179688 L 71.648438 51.589844 " fill-opacity="1" fill-rule="nonzero"/><path fill="#d4cdc3" d="M 41.910156 72.609375 L 41.90625 73.519531 L 33.054688 68.386719 L 33.054688 67.472656 L 41.910156 72.609375 " fill-opacity="1" fill-rule="nonzero"/><path fill="#9f9891" d="M 75.6875 53.019531 L 75.6875 53.925781 L 41.90625 73.519531 L 41.910156 72.609375 L 75.6875 53.019531 " fill-opacity="1" fill-rule="nonzero"/><path fill="#e2ddd9" d="M 75.6875 53.019531 L 66.832031 47.886719 L 33.054688 67.472656 L 41.910156 72.609375 L 75.6875 53.019531 " fill-opacity="1" fill-rule="nonzero"/><path fill="#d5ba90" d="M 27.835938 42.761719 L 27.835938 43.046875 L 25.085938 41.453125 L 25.085938 41.171875 L 27.835938 42.761719 " fill-opacity="1" fill-rule="nonzero"/><path fill="#a88552" d="M 53.929688 27.636719 L 53.929688 27.917969 L 27.835938 43.046875 L 27.835938 42.761719 L 53.929688 27.636719 " fill-opacity="1" fill-rule="nonzero"/><path fill="#ebcba0" d="M 53.929688 27.636719 L 51.179688 26.042969 L 25.085938 41.171875 L 27.835938 42.761719 L 53.929688 27.636719 " fill-opacity="1" fill-rule="nonzero"/><path fill="#7f6a66" d="M 25.917969 40.6875 L 26.917969 41.265625 L 27.082031 41.171875 L 26.082031 40.59375 L 25.917969 40.6875 " fill-opacity="1" fill-rule="nonzero"/><path fill="#7f6a66" d="M 27.539062 39.746094 L 28.539062 40.324219 L 28.703125 40.230469 L 27.707031 39.652344 L 27.539062 39.746094 " fill-opacity="1" fill-rule="nonzero"/><path fill="#7f6a66" d="M 29.164062 38.808594 L 30.160156 39.382812 L 30.324219 39.289062 L 29.328125 38.710938 L 29.164062 38.808594 " fill-opacity="1" fill-rule="nonzero"/><path fill="#7f6a66" d="M 30.785156 37.867188 L 31.785156 38.445312 L 31.945312 38.351562 L 30.949219 37.773438 L 30.785156 37.867188 " fill-opacity="1" fill-rule="nonzero"/><path fill="#7f6a66" d="M 32.410156 36.929688 L 33.40625 37.503906 L 33.566406 37.410156 L 32.570312 36.832031 L 32.410156 36.929688 " fill-opacity="1" fill-rule="nonzero"/><path fill="#7f6a66" d="M 34.03125 35.984375 L 35.027344 36.5625 L 35.1875 36.46875 L 34.191406 35.890625 L 34.03125 35.984375 " fill-opacity="1" fill-rule="nonzero"/><path fill="#7f6a66" d="M 35.652344 35.046875 L 36.648438 35.625 L 36.8125 35.53125 L 35.816406 34.953125 L 35.652344 35.046875 " fill-opacity="1" fill-rule="nonzero"/><path fill="#7f6a66" d="M 37.273438 34.105469 L 38.269531 34.683594 L 38.433594 34.589844 L 37.4375 34.011719 L 37.273438 34.105469 " fill-opacity="1" fill-rule="nonzero"/><path fill="#7f6a66" d="M 38.898438 33.167969 L 39.894531 33.746094 L 40.058594 33.648438 L 39.0625 33.070312 L 38.898438 33.167969 " fill-opacity="1" fill-rule="nonzero"/><path fill="#7f6a66" d="M 40.519531 32.226562 L 41.515625 32.804688 L 41.679688 32.710938 L 40.683594 32.132812 L 40.519531 32.226562 " fill-opacity="1" fill-rule="nonzero"/><path fill="#7f6a66" d="M 42.140625 31.285156 L 43.140625 31.863281 L 43.300781 31.769531 L 42.304688 31.191406 L 42.140625 31.285156 " fill-opacity="1" fill-rule="nonzero"/><path fill="#7f6a66" d="M 43.765625 30.347656 L 44.761719 30.925781 L 44.925781 30.828125 L 43.925781 30.253906 L 43.765625 30.347656 " fill-opacity="1" fill-rule="nonzero"/><path fill="#7f6a66" d="M 45.386719 29.40625 L 46.382812 29.984375 L 46.546875 29.890625 L 45.546875 29.3125 L 45.386719 29.40625 " fill-opacity="1" fill-rule="nonzero"/><path fill="#7f6a66" d="M 47.007812 28.464844 L 48.003906 29.046875 L 48.167969 28.949219 L 47.171875 28.371094 L 47.007812 28.464844 " fill-opacity="1" fill-rule="nonzero"/><path fill="#7f6a66" d="M 48.628906 27.527344 L 49.628906 28.101562 L 49.792969 28.007812 L 48.792969 27.433594 L 48.628906 27.527344 " fill-opacity="1" fill-rule="nonzero"/><path fill="#7f6a66" d="M 50.414062 26.492188 L 50.253906 26.585938 L 51.25 27.164062 L 51.414062 27.070312 L 50.414062 26.492188 " fill-opacity="1" fill-rule="nonzero"/><path fill="#b2b2b2" d="M 26.835938 69.964844 L 26.585938 69.816406 L 26.078125 69.523438 L 26 69.535156 L 25.726562 69.375 L 11.589844 61.199219 L 9.992188 59.609375 L 12.757812 60.515625 L 26.894531 68.695312 L 27.175781 68.859375 L 27.152344 68.902344 L 27.65625 69.195312 L 27.914062 69.34375 L 27.78125 69.632812 L 27.339844 69.890625 L 26.835938 69.964844 " fill-opacity="1" fill-rule="nonzero"/><path fill="#7f6a66" d="M 10.625 59.335938 L 10.746094 59.195312 L 9.992188 58.996094 Z M 10.625 59.335938 " fill-opacity="1" fill-rule="nonzero"/><path fill="#3c312e" d="M 10.542969 59.542969 L 10.605469 59.375 L 9.992188 58.996094 Z M 10.542969 59.542969 " fill-opacity="1" fill-rule="nonzero"/><path fill="#64534d" d="M 10.542969 59.40625 L 10.613281 59.40625 L 10.625 59.261719 L 9.992188 58.996094 L 10.542969 59.40625 " fill-opacity="1" fill-rule="nonzero"/><path fill="#ebc188" d="M 11.828125 60.832031 L 12.488281 60.332031 L 12.503906 59.65625 L 11.800781 59.539062 L 10.625 59.261719 L 10.542969 59.40625 L 11.429688 60.199219 L 11.828125 60.832031 " fill-opacity="1" fill-rule="nonzero"/><path fill="#c39a5a" d="M 11.828125 60.832031 L 11.828125 60.367188 L 10.542969 59.40625 L 10.542969 59.542969 L 11.828125 60.832031 " fill-opacity="1" fill-rule="nonzero"/><path fill="#f3e2b8" d="M 12.109375 59.886719 L 12.503906 59.65625 L 10.746094 59.195312 L 10.625 59.261719 L 12.109375 59.886719 " fill-opacity="1" fill-rule="nonzero"/><path fill="#745853" d="M 24.292969 67.59375 L 24.578125 67.109375 L 24.972656 66.878906 L 25.253906 67.042969 L 25.253906 67.496094 L 24.972656 67.988281 L 24.578125 68.21875 L 24.292969 68.054688 L 24.292969 67.59375 " fill-opacity="1" fill-rule="nonzero"/><path fill="#9f9281" d="M 24.578125 67.109375 L 24.972656 66.878906 L 12.503906 59.65625 L 12.109375 59.886719 L 24.519531 67.117188 L 24.578125 67.109375 " fill-opacity="1" fill-rule="nonzero"/><path fill="#6f6253" d="M 24.292969 67.59375 L 24.578125 67.109375 L 12.109375 59.886719 L 11.828125 60.367188 L 24.246094 67.621094 L 24.292969 67.59375 " fill-opacity="1" fill-rule="nonzero"/><path fill="#5a4136" d="M 24.292969 68.054688 L 24.292969 67.59375 L 11.828125 60.367188 L 11.828125 60.832031 L 24.292969 68.054688 " fill-opacity="1" fill-rule="nonzero"/><path fill="#d4cdc3" d="M 25.953125 68.558594 L 26.230469 68.070312 L 26.628906 67.839844 L 26.90625 68.003906 L 26.90625 68.464844 L 26.628906 68.949219 L 26.230469 69.175781 L 25.953125 69.015625 L 25.953125 68.558594 " fill-opacity="1" fill-rule="nonzero"/><path fill="#e2ddd9" d="M 26.230469 68.070312 L 26.628906 67.839844 L 24.972656 66.878906 L 24.578125 67.105469 L 26.183594 68.078125 L 26.230469 68.070312 " fill-opacity="1" fill-rule="nonzero"/><path fill="#cdcdcd" d="M 25.953125 68.558594 L 26.230469 68.070312 L 24.578125 67.105469 L 24.292969 67.59375 L 25.902344 68.578125 L 25.953125 68.558594 " fill-opacity="1" fill-rule="nonzero"/><path fill="#9f9891" d="M 25.953125 69.015625 L 25.953125 68.558594 L 24.292969 67.59375 L 24.292969 68.054688 L 25.953125 69.015625 " fill-opacity="1" fill-rule="nonzero"/><path fill="#be685c" d="M 26.789062 69.015625 L 27.050781 68.570312 L 27.414062 68.359375 L 27.671875 68.507812 L 27.671875 68.925781 L 27.414062 69.375 L 27.050781 69.589844 L 26.789062 69.4375 L 26.789062 69.015625 " fill-opacity="1" fill-rule="nonzero"/><path fill="#f8a18d" d="M 27.050781 68.570312 L 27.414062 68.359375 L 26.652344 67.917969 L 26.285156 68.128906 L 27 68.578125 L 27.050781 68.570312 " fill-opacity="1" fill-rule="nonzero"/><path fill="#d1786e" d="M 26.789062 69.015625 L 27.050781 68.570312 L 26.285156 68.128906 L 26.03125 68.578125 L 26.746094 69.035156 L 26.789062 69.015625 " fill-opacity="1" fill-rule="nonzero"/><path fill="#a2475b" d="M 26.789062 69.4375 L 26.789062 69.015625 L 26.03125 68.578125 L 26.03125 68.996094 L 26.789062 69.4375 " fill-opacity="1" fill-rule="nonzero"/><path fill="#f65a51" d="M 23.148438 66.285156 L 23.542969 66.050781 L 22.9375 65.703125 L 22.542969 65.925781 L 23.101562 66.292969 L 23.148438 66.285156 " fill-opacity="1" fill-rule="nonzero"/><path fill="#c43f2f" d="M 22.871094 66.769531 L 23.148438 66.285156 L 22.542969 65.925781 L 22.261719 66.417969 L 22.820312 66.796875 L 22.871094 66.769531 " fill-opacity="1" fill-rule="nonzero"/><path fill="#861b13" d="M 22.871094 67.230469 L 22.871094 66.769531 L 22.261719 66.417969 L 22.261719 66.871094 L 22.871094 67.230469 " fill-opacity="1" fill-rule="nonzero"/><path fill="#1c4254" d="M 62.035156 49.664062 L 61.164062 49.289062 L 61.164062 49.136719 L 62.035156 49.664062 M 60.640625 49.0625 L 59.472656 48.558594 L 59.042969 48.679688 L 59.042969 47.621094 L 56.585938 46.195312 L 54.488281 43.671875 L 58.644531 46.078125 L 60.046875 47.765625 L 60.046875 48.398438 L 59.984375 48.414062 L 60.640625 48.816406 L 60.640625 49.0625 M 58.519531 48.519531 L 57.277344 47.027344 L 58.519531 47.746094 L 58.519531 48.519531 M 57.960938 45.257812 L 53.800781 42.84375 L 50.777344 39.207031 L 54.9375 41.617188 L 57.960938 45.257812 M 73.03125 43.292969 L 72.621094 43.070312 L 72.6875 43.03125 L 73.03125 43.292969 M 72.152344 42.8125 L 70.683594 42.007812 L 70.351562 42.410156 L 69.402344 41.863281 L 69.023438 42.085938 L 67.546875 41.671875 L 69.386719 40.609375 L 70.957031 41.046875 L 70.957031 41.679688 L 70.941406 41.699219 L 72.292969 42.730469 L 72.152344 42.8125 M 66.058594 41.257812 L 64.570312 40.84375 L 66.410156 39.777344 L 67.894531 40.191406 L 66.058594 41.257812 M 54.082031 40.589844 L 50.207031 38.34375 L 53.808594 36.257812 L 64.921875 39.363281 L 63.082031 40.425781 L 53.539062 37.761719 L 53.539062 38.167969 L 52.546875 38.742188 L 54.082031 40.589844 M 50.371094 38.972656 L 50.1875 38.972656 L 48.796875 38.167969 L 48.796875 37.269531 L 52.421875 35.171875 L 53.539062 35.816406 L 53.539062 35.882812 L 49.289062 38.34375 L 50.371094 38.972656 M 48.164062 35.929688 L 46.09375 34.730469 L 46.09375 34.316406 L 46.351562 33.875 L 46.707031 33.664062 L 49.390625 35.21875 L 48.164062 35.929688 " fill-opacity="1" fill-rule="nonzero"/><path fill="#47626f" d="M 72.621094 43.070312 L 72.152344 42.8125 L 72.292969 42.730469 L 72.6875 43.03125 L 72.621094 43.070312 M 54.9375 41.617188 L 50.777344 39.207031 L 50.582031 38.972656 L 50.371094 38.972656 L 49.289062 38.34375 L 53.539062 35.882812 L 53.539062 36.183594 L 53.808594 36.257812 L 50.207031 38.34375 L 54.082031 40.589844 L 54.9375 41.617188 " fill-opacity="1" fill-rule="nonzero"/><path fill="#47626f" d="M 48.796875 37.269531 L 48.796875 36.296875 L 48.164062 35.929688 L 49.390625 35.21875 L 49.609375 35.347656 L 50.1875 35.011719 L 52.148438 35.011719 L 52.421875 35.171875 L 48.796875 37.269531 " fill-opacity="1" fill-rule="nonzero"/><path fill="#47626f" d="M 70.320312 42.449219 L 69.023438 42.085938 L 69.402344 41.863281 L 70.351562 42.410156 L 70.320312 42.449219 " fill-opacity="1" fill-rule="nonzero"/><path fill="#47626f" d="M 67.546875 41.671875 L 66.058594 41.257812 L 67.894531 40.191406 L 69.386719 40.609375 L 67.546875 41.671875 " fill-opacity="1" fill-rule="nonzero"/><path fill="#47626f" d="M 64.570312 40.84375 L 63.082031 40.425781 L 64.921875 39.363281 L 66.410156 39.777344 L 64.570312 40.84375 " fill-opacity="1" fill-rule="nonzero"/><path fill="#acacac" d="M 61.164062 49.289062 L 60.640625 49.0625 L 60.640625 48.816406 L 61.164062 49.136719 L 61.164062 49.289062 M 58.722656 48.769531 L 58.519531 48.519531 L 58.519531 47.746094 L 57.277344 47.027344 L 56.585938 46.195312 L 59.042969 47.621094 L 59.042969 48.679688 L 58.722656 48.769531 M 58.644531 46.078125 L 54.488281 43.671875 L 53.800781 42.84375 L 57.960938 45.257812 L 58.644531 46.078125 " fill-opacity="1" fill-rule="nonzero"/><path fill="#322826" d="M 49.058594 35.882812 L 49.3125 35.441406 L 49.671875 35.234375 L 49.921875 35.378906 L 49.921875 35.796875 L 49.671875 36.238281 L 49.3125 36.445312 L 49.058594 36.296875 L 49.058594 35.882812 " fill-opacity="1" fill-rule="nonzero"/><path fill="#7f6a66" d="M 46.351562 33.722656 L 49.3125 35.441406 L 49.671875 35.234375 L 46.707031 33.515625 L 46.351562 33.722656 " fill-opacity="1" fill-rule="nonzero"/><path fill="#64534d" d="M 46.09375 34.167969 L 49.058594 35.882812 L 49.3125 35.441406 L 46.351562 33.722656 L 46.09375 34.167969 " fill-opacity="1" fill-rule="nonzero"/><path fill="#50413d" d="M 46.09375 34.582031 L 49.058594 36.296875 L 49.058594 35.882812 L 46.09375 34.167969 L 46.09375 34.582031 " fill-opacity="1" fill-rule="nonzero"/><path fill="#3c312e" d="M 48.796875 36.804688 L 48.796875 38.019531 L 50.1875 38.824219 L 52.148438 38.824219 L 53.539062 38.019531 L 53.539062 36.804688 L 52.148438 36.078125 L 50.1875 36.078125 L 48.796875 36.804688 " fill-opacity="1" fill-rule="nonzero"/><path fill="#534540" d="M 48.796875 35.667969 L 48.796875 36.804688 L 50.1875 37.609375 L 52.148438 37.609375 L 53.539062 36.804688 L 53.539062 35.667969 L 52.148438 34.863281 L 50.1875 34.863281 L 48.796875 35.667969 " fill-opacity="1" fill-rule="nonzero"/><path fill="#3c312e" d="M 51.539062 35.71875 L 50.800781 35.71875 L 50.277344 36.023438 L 50.277344 36.449219 L 50.800781 36.753906 L 51.539062 36.753906 L 52.0625 36.449219 L 52.0625 36.023438 L 51.539062 35.71875 " fill-opacity="1" fill-rule="nonzero"/><path fill="#9f9891" d="M 50.335938 37.894531 L 50.335938 38.53125 L 58.722656 48.621094 L 60.046875 48.25 L 60.046875 47.617188 L 59.195312 47.34375 L 50.335938 37.894531 " fill-opacity="1" fill-rule="nonzero"/><path fill="#d4cdc3" d="M 51.96875 37.894531 L 50.335938 37.894531 L 58.722656 47.988281 L 60.046875 47.617188 L 51.96875 37.894531 " fill-opacity="1" fill-rule="nonzero"/><path fill="#0a0808" d="M 62.035156 49.519531 L 59.617188 48.171875 L 59.15625 48.121094 L 59.15625 48.273438 L 62.035156 49.519531 " fill-opacity="1" fill-rule="nonzero"/><path fill="#534540" d="M 62.035156 49.519531 L 59.558594 48.007812 L 59.15625 48.121094 Z M 62.035156 49.519531 " fill-opacity="1" fill-rule="nonzero"/><path fill="#9f9891" d="M 53.539062 36.980469 L 53.539062 37.613281 L 70.320312 42.296875 L 70.957031 41.527344 L 70.957031 40.898438 L 69.804688 41.203125 L 58.082031 37.894531 L 53.539062 36.980469 " fill-opacity="1" fill-rule="nonzero"/><path fill="#d4cdc3" d="M 53.539062 36.035156 L 53.539062 36.980469 L 70.320312 41.664062 L 70.957031 40.898438 L 53.539062 36.035156 " fill-opacity="1" fill-rule="nonzero"/><path fill="#0a0808" d="M 73.03125 43.144531 L 70.554688 41.785156 L 70.554688 41.636719 L 70.75 41.550781 L 73.03125 43.144531 " fill-opacity="1" fill-rule="nonzero"/><path fill="#534540" d="M 73.03125 43.144531 L 70.554688 41.636719 L 70.75 41.402344 Z M 73.03125 43.144531 " fill-opacity="1" fill-rule="nonzero"/></svg>