<svg xmlns="http://www.w3.org/2000/svg" xmlns:xlink="http://www.w3.org/1999/xlink" width="120" zoomAndPan="magnify" viewBox="0 0 90 89.999999" height="120" preserveAspectRatio="xMidYMid meet" version="1.0"><defs><clipPath id="cd2685ebbd"><path d="M 0 16.082031 L 90 16.082031 L 90 70.082031 L 0 70.082031 Z M 0 16.082031 " clip-rule="nonzero"/></clipPath><clipPath id="deea1b58b4"><path d="M 0 16.082031 L 90 16.082031 L 90 68 L 0 68 Z M 0 16.082031 " clip-rule="nonzero"/></clipPath></defs><g clip-path="url(#cd2685ebbd)"><path fill="#1c1c1c" d="M 90 35.964844 C 90 36 89.980469 36.027344 89.953125 36.042969 L 88.894531 36.652344 L 89.582031 37.050781 C 89.609375 37.066406 89.625 37.097656 89.625 37.125 C 89.625 37.160156 89.609375 37.1875 89.582031 37.203125 L 32.71875 70.042969 C 32.703125 70.050781 32.691406 70.054688 32.671875 70.054688 C 32.65625 70.054688 32.644531 70.050781 32.628906 70.042969 L 0.046875 51.257812 C 0.0195312 51.242188 0 51.214844 0 51.183594 C 0 51.148438 0.0195312 51.121094 0.046875 51.105469 L 2.621094 49.617188 C 2.464844 49.460938 2.320312 49.308594 2.183594 49.15625 C 2.167969 49.140625 2.148438 49.121094 2.132812 49.105469 C 2.050781 49.011719 1.96875 48.917969 1.890625 48.828125 C 1.824219 48.746094 1.757812 48.664062 1.691406 48.585938 C 1.628906 48.511719 1.570312 48.4375 1.515625 48.363281 C 1.511719 48.355469 1.503906 48.351562 1.5 48.34375 C 1.480469 48.316406 1.460938 48.292969 1.441406 48.265625 C 1.398438 48.210938 1.355469 48.15625 1.3125 48.101562 C 1.292969 48.070312 1.269531 48.042969 1.25 48.011719 C 1.21875 47.96875 1.183594 47.921875 1.152344 47.878906 C 1.125 47.839844 1.101562 47.804688 1.078125 47.769531 C 1.054688 47.738281 1.03125 47.707031 1.011719 47.679688 C 1.007812 47.671875 1.003906 47.664062 1 47.65625 C 0.957031 47.597656 0.917969 47.535156 0.878906 47.480469 C 0.878906 47.476562 0.875 47.472656 0.871094 47.46875 C 0.871094 47.46875 0.871094 47.464844 0.867188 47.460938 C 0.789062 47.339844 0.71875 47.230469 0.664062 47.136719 C 0.636719 47.097656 0.617188 47.058594 0.59375 47.023438 C 0.550781 46.945312 0.515625 46.886719 0.488281 46.84375 C 0.488281 46.84375 0.488281 46.839844 0.488281 46.839844 C 0.460938 46.792969 0.449219 46.765625 0.449219 46.765625 C 0.433594 46.738281 0.4375 46.707031 0.449219 46.679688 C 0.464844 46.652344 0.492188 46.636719 0.523438 46.632812 C 0.539062 46.632812 2.273438 46.511719 4.304688 46.117188 C 19.238281 43.21875 55.390625 16.402344 55.753906 16.132812 C 55.785156 16.109375 55.824219 16.109375 55.855469 16.128906 L 89.953125 35.890625 C 89.980469 35.902344 90 35.933594 90 35.964844 Z M 90 35.964844 " fill-opacity="1" fill-rule="nonzero"/></g><g clip-path="url(#deea1b58b4)"><path fill="#61c4e6" d="M 43.75 46.367188 C 44.132812 46.648438 44.339844 46.996094 44.339844 47.367188 C 44.339844 47.804688 44.050781 48.214844 43.527344 48.515625 C 43.511719 48.527344 43.496094 48.53125 43.480469 48.53125 C 43.464844 48.53125 43.449219 48.527344 43.4375 48.515625 L 41.734375 47.53125 L 37.464844 49.988281 L 46.101562 54.992188 C 46.101562 54.996094 46.105469 54.996094 46.105469 54.996094 L 52.710938 51.195312 L 44.066406 46.183594 Z M 46.054688 49.308594 C 46.738281 48.914062 47.847656 48.914062 48.527344 49.308594 C 48.953125 49.554688 49.136719 49.910156 49.03125 50.261719 L 49.3125 50.273438 C 49.480469 50.28125 49.617188 50.347656 49.683594 50.449219 L 49.691406 50.449219 C 49.710938 50.410156 49.746094 50.375 49.792969 50.347656 C 49.875 50.300781 49.992188 50.285156 50.101562 50.296875 C 50.105469 50.296875 50.105469 50.296875 50.109375 50.296875 C 50.125 50.296875 50.136719 50.300781 50.148438 50.304688 C 50.222656 50.320312 50.289062 50.351562 50.332031 50.394531 C 50.375 50.4375 50.394531 50.484375 50.394531 50.539062 L 50.390625 51.246094 C 50.390625 51.324219 50.34375 51.390625 50.261719 51.4375 C 50.226562 51.457031 50.183594 51.472656 50.132812 51.480469 C 50.125 51.484375 50.113281 51.488281 50.101562 51.488281 C 50.101562 51.488281 50.097656 51.484375 50.097656 51.484375 C 50.074219 51.488281 50.050781 51.496094 50.023438 51.496094 C 49.898438 51.496094 49.785156 51.457031 49.71875 51.386719 C 49.703125 51.367188 49.691406 51.351562 49.683594 51.332031 L 49.671875 51.332031 C 49.648438 51.375 49.609375 51.410156 49.5625 51.4375 C 49.488281 51.480469 49.398438 51.503906 49.300781 51.507812 L 48.792969 51.53125 C 48.78125 51.53125 48.769531 51.53125 48.761719 51.53125 C 48.617188 51.53125 48.480469 51.488281 48.398438 51.410156 C 48.351562 51.363281 48.324219 51.300781 48.324219 51.238281 L 48.324219 50.925781 C 48.011719 51.058594 47.648438 51.128906 47.28125 51.128906 C 46.835938 51.128906 46.386719 51.03125 46.046875 50.835938 C 45.703125 50.636719 45.511719 50.363281 45.511719 50.070312 C 45.515625 49.777344 45.707031 49.507812 46.054688 49.308594 Z M 44.640625 51.6875 L 45.332031 52.085938 L 45.519531 51.980469 C 45.546875 51.964844 45.582031 51.964844 45.609375 51.980469 L 46.117188 52.277344 C 46.144531 52.292969 46.164062 52.320312 46.164062 52.351562 C 46.164062 52.386719 46.144531 52.414062 46.117188 52.429688 L 46.023438 52.484375 L 46.796875 52.933594 L 46.980469 52.828125 C 47.007812 52.808594 47.042969 52.808594 47.070312 52.828125 L 47.578125 53.121094 C 47.605469 53.136719 47.625 53.167969 47.625 53.199219 C 47.625 53.230469 47.605469 53.257812 47.578125 53.273438 L 47.484375 53.328125 L 48.085938 53.675781 C 48.113281 53.695312 48.128906 53.722656 48.128906 53.753906 C 48.128906 53.785156 48.113281 53.816406 48.085938 53.832031 L 46.25 54.886719 C 46.238281 54.894531 46.222656 54.898438 46.207031 54.898438 C 46.191406 54.898438 46.175781 54.894531 46.160156 54.886719 L 42.71875 52.890625 C 42.691406 52.875 42.671875 52.84375 42.671875 52.8125 C 42.671875 52.78125 42.691406 52.753906 42.71875 52.738281 L 44.550781 51.679688 C 44.578125 51.671875 44.613281 51.671875 44.640625 51.6875 Z M 44.4375 51.621094 C 44.4375 51.652344 44.421875 51.679688 44.394531 51.699219 L 42.558594 52.753906 C 42.542969 52.761719 42.53125 52.765625 42.515625 52.765625 C 42.496094 52.765625 42.484375 52.761719 42.46875 52.753906 L 39.027344 50.757812 C 39 50.742188 38.980469 50.710938 38.980469 50.679688 C 38.980469 50.648438 39 50.617188 39.027344 50.601562 L 40.417969 49.800781 C 40.410156 49.789062 40.40625 49.773438 40.40625 49.757812 C 40.40625 49.742188 40.40625 49.726562 40.417969 49.710938 C 40.441406 49.667969 40.5 49.65625 40.542969 49.679688 L 40.585938 49.707031 L 40.859375 49.546875 C 40.890625 49.53125 40.921875 49.53125 40.949219 49.546875 L 41.640625 49.949219 L 41.824219 49.839844 C 41.855469 49.824219 41.886719 49.824219 41.914062 49.839844 L 42.425781 50.136719 C 42.453125 50.152344 42.46875 50.183594 42.46875 50.214844 C 42.46875 50.246094 42.453125 50.273438 42.425781 50.289062 L 42.328125 50.34375 L 43.101562 50.792969 L 43.285156 50.6875 C 43.3125 50.671875 43.347656 50.671875 43.375 50.6875 L 43.886719 50.980469 C 43.914062 50.996094 43.929688 51.027344 43.929688 51.058594 C 43.929688 51.089844 43.914062 51.121094 43.886719 51.136719 L 43.789062 51.191406 L 44.390625 51.539062 C 44.421875 51.558594 44.4375 51.589844 44.4375 51.621094 Z M 36.761719 50.390625 C 37.144531 50.671875 37.355469 51.019531 37.355469 51.390625 C 37.355469 51.832031 37.0625 52.238281 36.539062 52.539062 C 36.523438 52.546875 36.507812 52.550781 36.492188 52.550781 C 36.476562 52.550781 36.460938 52.546875 36.449219 52.539062 L 34.746094 51.550781 L 30.023438 54.273438 L 38.667969 59.28125 L 41.484375 57.660156 L 41.457031 57.644531 C 41.429688 57.628906 41.410156 57.597656 41.410156 57.566406 C 41.410156 57.535156 41.429688 57.507812 41.457031 57.488281 L 44.59375 55.683594 C 44.621094 55.667969 44.65625 55.667969 44.683594 55.683594 L 44.800781 55.753906 L 45.746094 55.207031 L 37.101562 50.195312 Z M 33.050781 54.453125 L 32.1875 54.953125 C 32.101562 55 31.996094 55.023438 31.890625 55.023438 C 31.777344 55.023438 31.660156 54.996094 31.574219 54.9375 L 31.246094 54.710938 C 31.167969 54.65625 31.121094 54.582031 31.125 54.5 C 31.125 54.480469 31.132812 54.464844 31.132812 54.449219 C 31.089844 54.460938 31.042969 54.46875 31 54.46875 C 30.914062 54.46875 30.828125 54.449219 30.761719 54.40625 C 30.738281 54.394531 30.714844 54.375 30.695312 54.355469 C 30.695312 54.355469 30.691406 54.351562 30.691406 54.351562 C 30.6875 54.347656 30.6875 54.34375 30.683594 54.339844 C 30.683594 54.339844 30.679688 54.339844 30.679688 54.339844 C 30.679688 54.339844 30.679688 54.335938 30.679688 54.335938 C 30.652344 54.300781 30.636719 54.261719 30.636719 54.21875 C 30.636719 54.144531 30.683594 54.074219 30.765625 54.027344 L 31.636719 53.527344 C 31.746094 53.464844 31.894531 53.453125 32.019531 53.488281 C 32.035156 53.492188 32.046875 53.496094 32.058594 53.503906 C 32.078125 53.511719 32.097656 53.519531 32.117188 53.527344 C 32.195312 53.574219 32.242188 53.644531 32.242188 53.71875 C 32.242188 53.734375 32.238281 53.753906 32.234375 53.769531 C 32.371094 53.742188 32.523438 53.753906 32.640625 53.8125 L 33.027344 54.003906 C 33.132812 54.054688 33.199219 54.136719 33.199219 54.226562 C 33.199219 54.316406 33.148438 54.398438 33.050781 54.453125 Z M 40.976562 57.902344 L 38.773438 59.171875 C 38.757812 59.179688 38.742188 59.183594 38.726562 59.183594 C 38.710938 59.183594 38.695312 59.179688 38.683594 59.171875 L 37.507812 58.492188 C 37.503906 58.492188 37.503906 58.488281 37.503906 58.488281 L 33.761719 56.320312 C 33.734375 56.304688 33.714844 56.273438 33.714844 56.242188 C 33.714844 56.210938 33.734375 56.183594 33.761719 56.167969 L 35.964844 54.898438 C 35.996094 54.882812 36.027344 54.882812 36.054688 54.898438 L 39.214844 56.726562 L 40.976562 57.75 C 41.003906 57.765625 41.023438 57.796875 41.023438 57.824219 C 41.023438 57.859375 41.003906 57.886719 40.976562 57.902344 Z M 38.804688 53.1875 L 40.339844 52.304688 C 40.367188 52.289062 40.402344 52.289062 40.429688 52.304688 L 44.933594 54.914062 C 44.960938 54.933594 44.980469 54.960938 44.980469 54.992188 C 44.980469 55.023438 44.960938 55.054688 44.933594 55.070312 L 43.402344 55.953125 C 43.386719 55.960938 43.371094 55.964844 43.355469 55.964844 C 43.339844 55.964844 43.324219 55.960938 43.3125 55.953125 L 41.167969 54.710938 L 41.164062 55.171875 C 41.164062 55.257812 41.113281 55.335938 41.015625 55.394531 C 40.9375 55.441406 40.832031 55.464844 40.722656 55.464844 C 40.710938 55.464844 40.703125 55.464844 40.691406 55.464844 L 40.179688 55.441406 C 40.007812 55.433594 39.871094 55.363281 39.8125 55.269531 L 39.800781 55.269531 C 39.777344 55.308594 39.746094 55.339844 39.699219 55.367188 C 39.632812 55.40625 39.542969 55.425781 39.457031 55.425781 C 39.457031 55.425781 39.457031 55.425781 39.453125 55.425781 C 39.425781 55.425781 39.402344 55.421875 39.375 55.417969 C 39.371094 55.417969 39.367188 55.417969 39.363281 55.417969 C 39.355469 55.414062 39.351562 55.414062 39.34375 55.410156 C 39.191406 55.378906 39.09375 55.285156 39.097656 55.175781 L 39.097656 54.46875 C 39.097656 54.390625 39.144531 54.324219 39.226562 54.277344 C 39.265625 54.253906 39.316406 54.234375 39.367188 54.226562 C 39.371094 54.226562 39.371094 54.226562 39.371094 54.226562 C 39.402344 54.222656 39.433594 54.21875 39.46875 54.21875 C 39.628906 54.21875 39.757812 54.285156 39.808594 54.382812 L 39.8125 54.382812 C 39.839844 54.339844 39.878906 54.304688 39.925781 54.273438 C 39.996094 54.234375 40.089844 54.207031 40.1875 54.203125 L 40.277344 54.203125 L 38.804688 53.347656 C 38.777344 53.332031 38.757812 53.300781 38.757812 53.269531 C 38.757812 53.234375 38.777344 53.203125 38.804688 53.1875 Z M 34.5625 51.238281 L 29.664062 54.0625 L 26.90625 52.464844 L 32.613281 49.175781 C 32.671875 49.144531 32.703125 49.085938 32.703125 49.019531 C 32.703125 48.992188 32.695312 48.960938 32.679688 48.929688 C 32.648438 48.871094 32.582031 48.84375 32.515625 48.84375 C 32.492188 48.84375 32.464844 48.851562 32.441406 48.863281 C 32.058594 48.609375 31.847656 48.289062 31.847656 47.957031 C 31.847656 47.597656 32.089844 47.257812 32.527344 46.992188 C 32.527344 46.992188 32.53125 46.988281 32.53125 46.988281 L 34.195312 47.957031 C 34.195312 47.984375 34.203125 48.015625 34.21875 48.042969 C 34.253906 48.101562 34.3125 48.132812 34.375 48.132812 C 34.40625 48.132812 34.4375 48.128906 34.464844 48.109375 L 41.964844 43.792969 C 42.023438 43.757812 42.054688 43.699219 42.054688 43.636719 C 42.054688 43.605469 42.046875 43.574219 42.03125 43.546875 C 42 43.496094 41.945312 43.464844 41.890625 43.460938 C 41.867188 43.457031 41.84375 43.460938 41.824219 43.46875 C 41.4375 43.210938 41.222656 42.890625 41.222656 42.554688 C 41.222656 42.199219 41.464844 41.859375 41.902344 41.59375 L 43.570312 42.558594 C 43.570312 42.589844 43.578125 42.617188 43.59375 42.648438 C 43.625 42.703125 43.6875 42.738281 43.75 42.738281 C 43.78125 42.738281 43.808594 42.730469 43.839844 42.714844 L 51.785156 38.136719 C 51.84375 38.105469 51.875 38.046875 51.875 37.984375 C 51.875 37.953125 51.867188 37.921875 51.851562 37.894531 C 51.835938 37.863281 51.8125 37.84375 51.785156 37.828125 C 51.78125 37.828125 51.773438 37.820312 51.769531 37.816406 L 42.613281 32.511719 L 43.316406 32.105469 L 44.710938 32.914062 C 44.726562 32.925781 44.742188 32.929688 44.757812 32.929688 C 44.773438 32.929688 44.789062 32.925781 44.800781 32.914062 C 45.246094 32.660156 45.488281 32.316406 45.488281 31.945312 C 45.488281 31.742188 45.414062 31.550781 45.277344 31.375 C 45.597656 31.46875 45.949219 31.515625 46.304688 31.515625 C 46.875 31.515625 47.449219 31.390625 47.886719 31.136719 C 47.914062 31.121094 47.933594 31.09375 47.933594 31.0625 C 47.933594 31.027344 47.914062 31 47.886719 30.984375 L 46.582031 30.226562 L 47.214844 29.863281 L 56.570312 35.28125 C 56.578125 35.289062 56.589844 35.289062 56.597656 35.292969 C 56.617188 35.300781 56.640625 35.304688 56.660156 35.304688 C 56.683594 35.304688 56.703125 35.300781 56.722656 35.292969 C 56.730469 35.289062 56.738281 35.285156 56.75 35.28125 L 57.34375 34.941406 C 57.398438 34.90625 57.433594 34.847656 57.433594 34.785156 C 57.433594 34.753906 57.425781 34.726562 57.410156 34.695312 C 57.378906 34.644531 57.332031 34.617188 57.277344 34.609375 C 57.257812 34.605469 57.234375 34.609375 57.210938 34.613281 C 56.824219 34.355469 56.609375 34.039062 56.609375 33.699219 C 56.609375 33.34375 56.851562 33 57.289062 32.734375 C 57.292969 32.734375 57.292969 32.734375 57.292969 32.734375 L 58.957031 33.699219 C 58.957031 33.726562 58.964844 33.757812 58.980469 33.789062 C 59.015625 33.84375 59.074219 33.878906 59.136719 33.878906 C 59.167969 33.878906 59.199219 33.871094 59.226562 33.855469 L 61.683594 32.441406 L 64.441406 34.039062 L 55.6875 39.078125 C 55.628906 39.113281 55.597656 39.171875 55.597656 39.234375 C 55.597656 39.265625 55.605469 39.292969 55.621094 39.324219 C 55.652344 39.378906 55.714844 39.414062 55.777344 39.414062 C 55.804688 39.414062 55.832031 39.40625 55.859375 39.390625 C 56.238281 39.644531 56.445312 39.960938 56.445312 40.292969 C 56.445312 40.652344 56.203125 40.996094 55.765625 41.261719 L 54.105469 40.300781 C 54.105469 40.269531 54.097656 40.238281 54.082031 40.210938 C 54.03125 40.125 53.921875 40.09375 53.835938 40.144531 L 52.613281 40.847656 L 46.441406 44.402344 C 46.382812 44.4375 46.351562 44.496094 46.351562 44.558594 C 46.351562 44.589844 46.355469 44.621094 46.375 44.648438 C 46.40625 44.707031 46.46875 44.738281 46.53125 44.738281 C 46.558594 44.738281 46.585938 44.730469 46.613281 44.71875 C 46.992188 44.972656 47.199219 45.289062 47.199219 45.621094 C 47.199219 45.980469 46.957031 46.320312 46.515625 46.585938 L 44.859375 45.625 C 44.859375 45.59375 44.851562 45.5625 44.835938 45.535156 C 44.785156 45.449219 44.675781 45.417969 44.589844 45.46875 L 43.976562 45.820312 L 43.40625 46.152344 C 43.347656 46.183594 43.316406 46.246094 43.316406 46.308594 C 43.316406 46.335938 43.324219 46.367188 43.339844 46.398438 C 43.371094 46.453125 43.433594 46.488281 43.496094 46.488281 C 43.523438 46.488281 43.550781 46.480469 43.578125 46.464844 C 43.957031 46.71875 44.164062 47.035156 44.164062 47.367188 C 44.164062 47.726562 43.921875 48.066406 43.484375 48.332031 L 41.824219 47.375 C 41.824219 47.34375 41.816406 47.3125 41.800781 47.285156 C 41.75 47.199219 41.640625 47.167969 41.554688 47.21875 L 37.015625 49.832031 L 36.417969 50.175781 C 36.359375 50.210938 36.328125 50.269531 36.328125 50.332031 C 36.328125 50.363281 36.335938 50.394531 36.351562 50.421875 C 36.386719 50.480469 36.445312 50.511719 36.507812 50.511719 C 36.535156 50.511719 36.5625 50.503906 36.589844 50.488281 C 36.96875 50.746094 37.175781 51.058594 37.175781 51.390625 C 37.175781 51.75 36.933594 52.09375 36.496094 52.359375 L 34.835938 51.398438 C 34.835938 51.367188 34.828125 51.335938 34.8125 51.308594 C 34.761719 51.21875 34.648438 51.191406 34.5625 51.238281 Z M 41.644531 43.5625 C 41.253906 43.28125 41.042969 42.929688 41.042969 42.554688 C 41.042969 42.117188 41.332031 41.710938 41.859375 41.410156 C 41.863281 41.40625 41.867188 41.40625 41.871094 41.40625 C 41.875 41.402344 41.878906 41.402344 41.886719 41.398438 C 41.890625 41.398438 41.898438 41.398438 41.902344 41.398438 C 41.910156 41.398438 41.914062 41.398438 41.921875 41.398438 C 41.925781 41.402344 41.933594 41.402344 41.9375 41.40625 C 41.941406 41.410156 41.945312 41.410156 41.949219 41.410156 L 43.660156 42.402344 L 51.335938 37.984375 L 42.253906 32.71875 L 41.09375 33.386719 L 41.132812 33.40625 C 41.160156 33.421875 41.175781 33.453125 41.175781 33.484375 C 41.175781 33.515625 41.160156 33.546875 41.132812 33.5625 L 37.996094 35.367188 C 37.980469 35.375 37.964844 35.378906 37.949219 35.378906 C 37.933594 35.378906 37.917969 35.375 37.90625 35.367188 L 37.777344 35.296875 L 36.378906 36.101562 L 36.414062 36.121094 C 36.441406 36.140625 36.460938 36.167969 36.460938 36.199219 C 36.460938 36.230469 36.441406 36.261719 36.414062 36.277344 L 33.277344 38.082031 C 33.261719 38.089844 33.246094 38.09375 33.230469 38.09375 C 33.214844 38.09375 33.199219 38.09375 33.1875 38.082031 L 33.0625 38.011719 L 31.699219 38.796875 L 40.777344 44.058594 Z M 47.675781 39.820312 L 46.207031 40.664062 C 46.125 40.714844 46.015625 40.738281 45.90625 40.738281 C 45.800781 40.738281 45.691406 40.714844 45.605469 40.664062 L 44.140625 39.816406 C 44.0625 39.773438 44.019531 39.707031 44.019531 39.632812 C 44.019531 39.5625 44.0625 39.496094 44.140625 39.449219 C 44.238281 39.394531 44.375 39.378906 44.488281 39.410156 L 45.644531 38.746094 C 45.640625 38.730469 45.636719 38.714844 45.636719 38.703125 C 45.636719 38.628906 45.683594 38.5625 45.757812 38.519531 C 45.886719 38.445312 46.078125 38.445312 46.210938 38.519531 L 47.675781 39.371094 C 47.773438 39.425781 47.828125 39.507812 47.824219 39.59375 C 47.824219 39.683594 47.769531 39.765625 47.675781 39.820312 Z M 44.785156 34.675781 L 48.46875 36.808594 C 48.5625 36.867188 48.617188 36.949219 48.617188 37.035156 C 48.617188 37.121094 48.5625 37.207031 48.464844 37.261719 L 46.988281 38.113281 C 46.925781 38.148438 46.84375 38.167969 46.765625 38.167969 C 46.683594 38.167969 46.601562 38.148438 46.539062 38.113281 C 46.464844 38.066406 46.417969 38 46.417969 37.929688 C 46.417969 37.914062 46.421875 37.898438 46.425781 37.886719 L 43.050781 35.929688 C 42.933594 35.960938 42.800781 35.945312 42.703125 35.890625 C 42.628906 35.847656 42.585938 35.78125 42.585938 35.707031 C 42.585938 35.636719 42.628906 35.570312 42.703125 35.523438 L 44.179688 34.675781 C 44.351562 34.578125 44.617188 34.578125 44.785156 34.675781 Z M 41.285156 34.085938 C 41.765625 33.808594 42.519531 33.808594 42.996094 34.085938 C 43.242188 34.226562 43.375 34.421875 43.375 34.632812 C 43.375 34.839844 43.238281 35.035156 42.992188 35.179688 C 42.753906 35.316406 42.445312 35.382812 42.132812 35.382812 C 41.824219 35.382812 41.511719 35.316406 41.28125 35.179688 C 41.035156 35.035156 40.902344 34.84375 40.902344 34.636719 C 40.898438 34.421875 41.035156 34.230469 41.285156 34.085938 Z M 36.195312 38.976562 C 36.097656 39.03125 35.964844 39.046875 35.847656 39.015625 L 34.691406 39.679688 C 34.695312 39.695312 34.699219 39.710938 34.699219 39.722656 C 34.699219 39.796875 34.65625 39.863281 34.578125 39.90625 C 34.515625 39.945312 34.433594 39.960938 34.351562 39.960938 C 34.273438 39.960938 34.191406 39.945312 34.128906 39.90625 L 32.660156 39.054688 C 32.566406 39 32.511719 38.917969 32.511719 38.832031 C 32.511719 38.742188 32.566406 38.660156 32.664062 38.605469 L 34.128906 37.761719 C 34.300781 37.664062 34.5625 37.664062 34.734375 37.761719 L 36.199219 38.609375 C 36.277344 38.652344 36.320312 38.71875 36.320312 38.792969 C 36.316406 38.867188 36.273438 38.933594 36.195312 38.976562 Z M 38.785156 37.484375 C 38.6875 37.539062 38.550781 37.554688 38.4375 37.527344 L 37.28125 38.191406 C 37.285156 38.207031 37.289062 38.222656 37.289062 38.234375 C 37.289062 38.308594 37.246094 38.375 37.167969 38.417969 C 37.101562 38.457031 37.023438 38.472656 36.941406 38.472656 C 36.863281 38.472656 36.78125 38.457031 36.71875 38.417969 L 35.25 37.566406 C 35.15625 37.511719 35.101562 37.429688 35.101562 37.34375 C 35.101562 37.253906 35.15625 37.171875 35.253906 37.117188 L 36.71875 36.273438 C 36.886719 36.175781 37.152344 36.175781 37.320312 36.273438 L 38.789062 37.125 C 38.863281 37.167969 38.90625 37.234375 38.90625 37.304688 C 38.90625 37.375 38.863281 37.441406 38.785156 37.484375 Z M 39.757812 36.925781 C 39.691406 36.964844 39.609375 36.980469 39.53125 36.980469 C 39.449219 36.980469 39.371094 36.964844 39.304688 36.925781 L 37.839844 36.074219 C 37.746094 36.019531 37.691406 35.9375 37.691406 35.851562 C 37.691406 35.761719 37.746094 35.679688 37.839844 35.625 L 39.304688 34.78125 C 39.476562 34.683594 39.742188 34.683594 39.910156 34.78125 L 41.375 35.632812 C 41.453125 35.675781 41.496094 35.742188 41.496094 35.8125 C 41.496094 35.882812 41.449219 35.949219 41.375 35.996094 C 41.277344 36.050781 41.144531 36.066406 41.027344 36.035156 L 39.871094 36.703125 C 39.875 36.71875 39.878906 36.730469 39.878906 36.746094 C 39.878906 36.8125 39.835938 36.882812 39.757812 36.925781 Z M 71.703125 38.382812 C 71.6875 38.386719 71.671875 38.394531 71.65625 38.394531 C 71.640625 38.394531 71.625 38.390625 71.609375 38.382812 L 68.496094 36.574219 C 68.46875 36.558594 68.449219 36.527344 68.449219 36.496094 C 68.449219 36.464844 68.46875 36.4375 68.496094 36.421875 L 68.523438 36.40625 L 67.394531 35.75 L 67.371094 35.761719 C 67.359375 35.769531 67.339844 35.773438 67.328125 35.773438 C 67.296875 35.773438 67.265625 35.757812 67.25 35.730469 C 67.238281 35.707031 67.234375 35.683594 67.242188 35.660156 L 64.804688 34.25 L 56.035156 39.296875 C 56.417969 39.578125 56.625 39.929688 56.625 40.300781 C 56.625 40.738281 56.335938 41.144531 55.808594 41.449219 C 55.792969 41.457031 55.78125 41.460938 55.765625 41.460938 C 55.746094 41.460938 55.734375 41.457031 55.71875 41.449219 L 54.015625 40.460938 L 53.0625 41.007812 L 55.472656 42.40625 L 55.496094 42.394531 C 55.539062 42.367188 55.59375 42.382812 55.617188 42.425781 C 55.628906 42.4375 55.628906 42.457031 55.628906 42.46875 C 55.628906 42.476562 55.628906 42.484375 55.625 42.492188 L 61.703125 46.011719 C 61.703125 46.015625 61.707031 46.015625 61.707031 46.015625 L 65.457031 43.855469 C 65.457031 43.851562 65.453125 43.84375 65.453125 43.835938 C 65.453125 43.820312 65.457031 43.804688 65.464844 43.789062 C 65.488281 43.746094 65.546875 43.734375 65.589844 43.757812 L 65.609375 43.769531 L 69.425781 41.574219 C 69.421875 41.570312 69.417969 41.5625 69.417969 41.554688 C 69.417969 41.539062 69.421875 41.523438 69.429688 41.507812 C 69.457031 41.464844 69.511719 41.453125 69.554688 41.476562 L 69.578125 41.488281 L 73.453125 39.257812 L 71.824219 38.316406 Z M 56.386719 42.085938 L 56.066406 42.269531 C 56.050781 42.28125 56.035156 42.28125 56.019531 42.28125 C 55.988281 42.28125 55.957031 42.265625 55.941406 42.238281 C 55.917969 42.195312 55.929688 42.140625 55.972656 42.117188 L 56.296875 41.929688 C 56.339844 41.90625 56.394531 41.921875 56.417969 41.964844 C 56.441406 42.003906 56.429688 42.058594 56.386719 42.085938 Z M 66.449219 36.082031 L 66.785156 35.890625 C 66.828125 35.867188 66.882812 35.878906 66.90625 35.921875 C 66.929688 35.964844 66.917969 36.023438 66.875 36.046875 L 66.539062 36.238281 C 66.527344 36.25 66.511719 36.253906 66.496094 36.253906 C 66.464844 36.253906 66.433594 36.234375 66.417969 36.207031 C 66.390625 36.164062 66.40625 36.109375 66.449219 36.082031 Z M 65.617188 36.5625 L 65.949219 36.371094 C 65.992188 36.34375 66.050781 36.359375 66.074219 36.402344 C 66.097656 36.445312 66.082031 36.5 66.039062 36.527344 L 65.707031 36.71875 C 65.691406 36.726562 65.675781 36.730469 65.664062 36.730469 C 65.632812 36.730469 65.601562 36.714844 65.585938 36.6875 C 65.558594 36.644531 65.574219 36.585938 65.617188 36.5625 Z M 64.785156 37.042969 L 65.117188 36.851562 C 65.160156 36.824219 65.214844 36.839844 65.238281 36.882812 C 65.265625 36.925781 65.25 36.980469 65.207031 37.003906 L 64.875 37.195312 C 64.859375 37.207031 64.84375 37.207031 64.828125 37.207031 C 64.796875 37.207031 64.769531 37.191406 64.75 37.164062 C 64.726562 37.121094 64.742188 37.066406 64.785156 37.042969 Z M 64.683594 38.757812 C 64.699219 38.722656 64.738281 38.707031 64.773438 38.710938 C 64.785156 38.714844 64.796875 38.714844 64.808594 38.722656 L 65.125 38.90625 C 65.15625 38.921875 65.171875 38.957031 65.167969 38.996094 C 65.167969 39.003906 65.164062 39.019531 65.15625 39.027344 C 65.140625 39.058594 65.113281 39.074219 65.082031 39.074219 C 65.066406 39.074219 65.050781 39.070312 65.035156 39.0625 L 64.71875 38.878906 C 64.671875 38.855469 64.65625 38.800781 64.683594 38.757812 Z M 63.949219 37.523438 L 64.285156 37.332031 C 64.328125 37.304688 64.382812 37.320312 64.40625 37.363281 C 64.429688 37.40625 64.417969 37.460938 64.375 37.484375 L 64.039062 37.675781 C 64.027344 37.6875 64.011719 37.691406 63.996094 37.691406 C 63.964844 37.691406 63.933594 37.671875 63.917969 37.644531 C 63.894531 37.601562 63.90625 37.546875 63.949219 37.523438 Z M 63.890625 38.296875 C 63.894531 38.289062 63.90625 38.277344 63.914062 38.269531 C 63.941406 38.25 63.980469 38.246094 64.011719 38.265625 L 64.332031 38.449219 C 64.375 38.472656 64.386719 38.53125 64.363281 38.570312 C 64.347656 38.601562 64.316406 38.617188 64.285156 38.617188 C 64.269531 38.617188 64.253906 38.613281 64.238281 38.601562 L 63.921875 38.421875 C 63.890625 38.402344 63.875 38.367188 63.878906 38.332031 C 63.882812 38.320312 63.886719 38.308594 63.890625 38.296875 Z M 63.136719 37.988281 L 63.296875 37.898438 L 63.453125 37.808594 C 63.496094 37.785156 63.550781 37.800781 63.574219 37.84375 C 63.582031 37.855469 63.585938 37.871094 63.585938 37.886719 C 63.585938 37.917969 63.570312 37.949219 63.542969 37.964844 L 63.519531 37.976562 L 63.542969 37.988281 C 63.585938 38.015625 63.597656 38.070312 63.574219 38.113281 C 63.558594 38.140625 63.527344 38.160156 63.496094 38.160156 C 63.480469 38.160156 63.464844 38.15625 63.453125 38.144531 L 63.339844 38.082031 L 63.230469 38.144531 C 63.214844 38.15625 63.199219 38.160156 63.183594 38.160156 C 63.152344 38.160156 63.121094 38.140625 63.105469 38.113281 C 63.078125 38.070312 63.09375 38.015625 63.136719 37.988281 Z M 62.34375 38.449219 L 62.660156 38.265625 C 62.703125 38.238281 62.757812 38.253906 62.78125 38.296875 C 62.789062 38.308594 62.792969 38.316406 62.792969 38.332031 C 62.796875 38.363281 62.78125 38.402344 62.746094 38.421875 L 62.429688 38.601562 C 62.417969 38.613281 62.402344 38.617188 62.386719 38.617188 C 62.355469 38.617188 62.324219 38.601562 62.308594 38.570312 C 62.304688 38.558594 62.296875 38.550781 62.296875 38.535156 C 62.292969 38.5 62.3125 38.464844 62.34375 38.449219 Z M 61.550781 38.902344 L 61.867188 38.71875 C 61.910156 38.695312 61.964844 38.710938 61.988281 38.753906 C 62.011719 38.796875 62 38.851562 61.957031 38.875 L 61.640625 39.058594 C 61.625 39.066406 61.609375 39.070312 61.59375 39.070312 C 61.5625 39.070312 61.53125 39.054688 61.515625 39.023438 C 61.492188 38.984375 61.507812 38.929688 61.550781 38.902344 Z M 60.753906 39.359375 L 61.070312 39.179688 C 61.117188 39.152344 61.171875 39.167969 61.195312 39.210938 C 61.199219 39.222656 61.207031 39.230469 61.207031 39.246094 C 61.210938 39.277344 61.191406 39.3125 61.160156 39.335938 L 60.84375 39.515625 C 60.828125 39.527344 60.8125 39.53125 60.796875 39.53125 C 60.769531 39.53125 60.738281 39.511719 60.722656 39.484375 C 60.714844 39.472656 60.710938 39.464844 60.710938 39.449219 C 60.707031 39.414062 60.722656 39.378906 60.753906 39.359375 Z M 60.71875 41.039062 C 60.742188 40.996094 60.796875 40.980469 60.84375 41.007812 L 61.160156 41.191406 C 61.191406 41.207031 61.207031 41.242188 61.203125 41.28125 C 61.203125 41.289062 61.199219 41.304688 61.191406 41.3125 C 61.175781 41.34375 61.144531 41.359375 61.117188 41.359375 C 61.097656 41.359375 61.085938 41.355469 61.070312 41.347656 L 60.753906 41.164062 C 60.722656 41.144531 60.703125 41.109375 60.707031 41.074219 C 60.707031 41.0625 60.710938 41.050781 60.71875 41.039062 Z M 59.960938 39.820312 L 60.277344 39.636719 C 60.320312 39.609375 60.378906 39.625 60.402344 39.667969 C 60.425781 39.710938 60.410156 39.765625 60.367188 39.792969 L 60.050781 39.976562 C 60.039062 39.984375 60.019531 39.988281 60.007812 39.988281 C 59.976562 39.988281 59.945312 39.972656 59.929688 39.941406 C 59.902344 39.898438 59.917969 39.84375 59.960938 39.820312 Z M 59.925781 40.578125 C 59.953125 40.535156 60.007812 40.523438 60.050781 40.546875 L 60.367188 40.730469 C 60.402344 40.75 60.417969 40.785156 60.414062 40.820312 C 60.410156 40.832031 60.40625 40.84375 60.402344 40.855469 C 60.386719 40.882812 60.355469 40.898438 60.324219 40.898438 C 60.308594 40.898438 60.292969 40.894531 60.28125 40.886719 L 59.964844 40.703125 C 59.929688 40.6875 59.914062 40.648438 59.917969 40.613281 C 59.917969 40.601562 59.921875 40.589844 59.925781 40.578125 Z M 59.171875 40.273438 L 59.328125 40.183594 L 59.488281 40.09375 C 59.53125 40.066406 59.585938 40.082031 59.609375 40.125 C 59.617188 40.140625 59.621094 40.15625 59.621094 40.171875 C 59.621094 40.199219 59.605469 40.230469 59.578125 40.246094 L 59.554688 40.261719 L 59.578125 40.273438 C 59.621094 40.296875 59.632812 40.355469 59.609375 40.398438 C 59.59375 40.425781 59.5625 40.441406 59.53125 40.441406 C 59.515625 40.441406 59.5 40.4375 59.488281 40.429688 L 59.375 40.363281 L 59.261719 40.429688 C 59.25 40.4375 59.234375 40.441406 59.21875 40.441406 C 59.1875 40.441406 59.15625 40.425781 59.140625 40.398438 C 59.117188 40.351562 59.128906 40.296875 59.171875 40.273438 Z M 58.375 40.730469 L 58.523438 40.644531 L 58.691406 40.546875 C 58.714844 40.535156 58.738281 40.53125 58.761719 40.539062 C 58.773438 40.542969 58.78125 40.546875 58.789062 40.554688 C 58.789062 40.554688 58.789062 40.554688 58.792969 40.554688 C 58.800781 40.558594 58.808594 40.570312 58.816406 40.578125 C 58.839844 40.621094 58.824219 40.679688 58.78125 40.703125 L 58.613281 40.800781 L 58.464844 40.886719 C 58.449219 40.894531 58.433594 40.898438 58.417969 40.898438 C 58.398438 40.898438 58.382812 40.890625 58.363281 40.878906 C 58.355469 40.871094 58.347656 40.863281 58.339844 40.855469 C 58.316406 40.8125 58.332031 40.757812 58.375 40.730469 Z M 57.574219 41.195312 L 57.894531 41.007812 C 57.925781 40.992188 57.964844 40.996094 57.992188 41.015625 C 57.992188 41.015625 57.996094 41.015625 57.996094 41.015625 C 58.003906 41.023438 58.015625 41.03125 58.019531 41.042969 C 58.042969 41.085938 58.03125 41.140625 57.988281 41.164062 L 57.667969 41.351562 C 57.652344 41.359375 57.636719 41.363281 57.621094 41.363281 C 57.589844 41.363281 57.558594 41.347656 57.542969 41.316406 C 57.515625 41.273438 57.53125 41.21875 57.574219 41.195312 Z M 57.183594 41.625 L 56.863281 41.808594 C 56.847656 41.816406 56.832031 41.820312 56.820312 41.820312 C 56.789062 41.820312 56.757812 41.804688 56.742188 41.777344 C 56.714844 41.734375 56.730469 41.679688 56.773438 41.65625 L 57.09375 41.46875 C 57.097656 41.46875 57.101562 41.46875 57.105469 41.464844 C 57.113281 41.460938 57.121094 41.460938 57.128906 41.460938 C 57.164062 41.457031 57.199219 41.472656 57.21875 41.503906 C 57.242188 41.546875 57.226562 41.597656 57.183594 41.625 Z M 64.214844 44.308594 L 64.042969 44.410156 C 64.027344 44.417969 64.011719 44.421875 63.996094 44.421875 C 63.980469 44.421875 63.964844 44.417969 63.953125 44.410156 L 63.664062 44.242188 L 62.417969 44.957031 L 62.617188 45.074219 C 62.644531 45.089844 62.664062 45.117188 62.664062 45.148438 C 62.664062 45.183594 62.644531 45.210938 62.617188 45.226562 L 62.449219 45.324219 C 62.433594 45.332031 62.417969 45.339844 62.402344 45.339844 C 62.386719 45.339844 62.371094 45.335938 62.355469 45.324219 L 62.066406 45.160156 L 61.84375 45.289062 C 61.828125 45.296875 61.816406 45.300781 61.800781 45.300781 C 61.78125 45.300781 61.769531 45.296875 61.753906 45.289062 L 61.515625 45.148438 C 61.488281 45.132812 61.46875 45.101562 61.46875 45.074219 C 61.46875 45.070312 61.472656 45.070312 61.472656 45.066406 L 61.234375 44.929688 L 61.039062 45.042969 C 61.027344 45.050781 61.011719 45.054688 60.996094 45.054688 C 60.980469 45.054688 60.964844 45.050781 60.949219 45.042969 L 60.117188 44.5625 L 60.03125 44.609375 C 60.015625 44.617188 60 44.621094 59.984375 44.621094 C 59.96875 44.621094 59.953125 44.617188 59.941406 44.609375 L 59.257812 44.214844 C 59.230469 44.199219 59.210938 44.167969 59.210938 44.136719 C 59.210938 44.105469 59.230469 44.078125 59.257812 44.058594 L 59.492188 43.921875 L 59.40625 43.871094 L 59.210938 43.984375 C 59.195312 43.992188 59.179688 43.996094 59.164062 43.996094 C 59.148438 43.996094 59.132812 43.992188 59.121094 43.984375 L 57.753906 43.195312 C 57.726562 43.179688 57.710938 43.148438 57.710938 43.117188 C 57.710938 43.085938 57.726562 43.058594 57.753906 43.039062 L 57.859375 42.980469 L 57.664062 42.867188 L 57.660156 42.871094 C 57.644531 42.878906 57.628906 42.882812 57.613281 42.882812 C 57.597656 42.882812 57.582031 42.878906 57.570312 42.871094 L 57.328125 42.730469 C 57.304688 42.714844 57.285156 42.683594 57.285156 42.65625 C 57.285156 42.621094 57.304688 42.59375 57.328125 42.578125 L 59.636719 41.25 C 59.664062 41.234375 59.699219 41.234375 59.726562 41.25 L 59.964844 41.386719 C 59.992188 41.402344 60.011719 41.433594 60.011719 41.464844 C 60.011719 41.464844 60.007812 41.46875 60.007812 41.46875 L 60.246094 41.605469 L 60.4375 41.496094 C 60.46875 41.480469 60.5 41.480469 60.527344 41.496094 L 61.894531 42.285156 C 61.921875 42.300781 61.9375 42.332031 61.9375 42.363281 C 61.9375 42.394531 61.921875 42.421875 61.894531 42.4375 L 61.789062 42.5 L 62.074219 42.664062 L 62.269531 42.554688 C 62.296875 42.539062 62.332031 42.539062 62.359375 42.554688 L 63.722656 43.34375 C 63.75 43.359375 63.769531 43.390625 63.769531 43.421875 C 63.769531 43.453125 63.75 43.480469 63.722656 43.5 L 63.621094 43.558594 L 63.816406 43.671875 L 63.820312 43.667969 C 63.847656 43.652344 63.882812 43.652344 63.910156 43.667969 L 64.148438 43.808594 C 64.175781 43.824219 64.195312 43.851562 64.195312 43.882812 C 64.195312 43.917969 64.179688 43.945312 64.148438 43.960938 L 64.015625 44.039062 L 64.214844 44.152344 C 64.242188 44.167969 64.261719 44.199219 64.261719 44.230469 C 64.261719 44.261719 64.242188 44.292969 64.214844 44.308594 Z M 61.507812 41.496094 C 61.535156 41.453125 61.589844 41.441406 61.632812 41.464844 L 61.679688 41.488281 L 61.949219 41.648438 C 61.984375 41.664062 62 41.703125 61.996094 41.738281 C 61.992188 41.75 61.988281 41.761719 61.984375 41.773438 C 61.96875 41.800781 61.9375 41.816406 61.90625 41.816406 C 61.890625 41.816406 61.875 41.8125 61.863281 41.804688 L 61.546875 41.621094 C 61.5 41.59375 61.484375 41.539062 61.507812 41.496094 Z M 62.300781 41.957031 C 62.324219 41.914062 62.378906 41.898438 62.425781 41.925781 L 62.742188 42.105469 C 62.785156 42.132812 62.796875 42.1875 62.773438 42.230469 C 62.757812 42.261719 62.726562 42.277344 62.695312 42.277344 C 62.679688 42.277344 62.664062 42.273438 62.652344 42.261719 L 62.335938 42.082031 C 62.289062 42.054688 62.273438 41.996094 62.300781 41.957031 Z M 63.089844 42.414062 C 63.113281 42.371094 63.171875 42.355469 63.214844 42.382812 L 63.53125 42.566406 C 63.574219 42.589844 63.589844 42.644531 63.5625 42.6875 C 63.546875 42.71875 63.515625 42.734375 63.484375 42.734375 C 63.46875 42.734375 63.457031 42.730469 63.441406 42.722656 L 63.125 42.539062 C 63.082031 42.511719 63.066406 42.457031 63.089844 42.414062 Z M 64.355469 43.144531 C 64.335938 43.175781 64.308594 43.191406 64.277344 43.191406 C 64.261719 43.191406 64.246094 43.1875 64.230469 43.179688 L 63.914062 42.996094 C 63.871094 42.96875 63.855469 42.914062 63.882812 42.871094 C 63.90625 42.828125 63.964844 42.8125 64.007812 42.839844 L 64.324219 43.023438 C 64.363281 43.046875 64.378906 43.101562 64.355469 43.144531 Z M 65.144531 43.605469 C 65.128906 43.632812 65.097656 43.648438 65.066406 43.648438 C 65.050781 43.648438 65.039062 43.644531 65.023438 43.636719 L 64.707031 43.453125 C 64.664062 43.429688 64.648438 43.371094 64.675781 43.328125 C 64.691406 43.296875 64.726562 43.28125 64.765625 43.285156 C 64.773438 43.285156 64.789062 43.289062 64.796875 43.296875 L 65.113281 43.480469 C 65.15625 43.503906 65.171875 43.5625 65.144531 43.605469 Z M 68.179688 42.027344 L 68.007812 42.125 C 67.992188 42.132812 67.980469 42.136719 67.960938 42.136719 C 67.945312 42.136719 67.933594 42.132812 67.917969 42.125 L 67.628906 41.957031 L 66.386719 42.675781 L 66.585938 42.789062 C 66.613281 42.804688 66.628906 42.835938 66.628906 42.867188 C 66.628906 42.898438 66.613281 42.925781 66.585938 42.945312 L 66.414062 43.042969 C 66.398438 43.050781 66.382812 43.054688 66.367188 43.054688 C 66.351562 43.054688 66.335938 43.050781 66.324219 43.042969 L 66.03125 42.875 L 65.808594 43.003906 C 65.796875 43.011719 65.78125 43.015625 65.765625 43.015625 C 65.75 43.015625 65.734375 43.011719 65.71875 43.003906 L 65.480469 42.867188 C 65.453125 42.851562 65.433594 42.820312 65.433594 42.789062 C 65.433594 42.789062 65.4375 42.785156 65.4375 42.785156 L 65.203125 42.648438 L 65.003906 42.761719 C 64.992188 42.769531 64.976562 42.773438 64.960938 42.773438 C 64.945312 42.773438 64.929688 42.769531 64.914062 42.761719 L 64.082031 42.277344 L 63.996094 42.328125 C 63.980469 42.335938 63.964844 42.339844 63.949219 42.339844 C 63.933594 42.339844 63.917969 42.335938 63.90625 42.328125 L 63.222656 41.933594 C 63.195312 41.917969 63.179688 41.886719 63.179688 41.855469 C 63.179688 41.824219 63.195312 41.792969 63.222656 41.777344 L 63.460938 41.640625 L 63.371094 41.589844 L 63.175781 41.703125 C 63.160156 41.710938 63.148438 41.714844 63.132812 41.714844 C 63.113281 41.714844 63.101562 41.710938 63.085938 41.703125 L 61.722656 40.914062 C 61.695312 40.898438 61.675781 40.867188 61.675781 40.835938 C 61.675781 40.804688 61.695312 40.773438 61.722656 40.757812 L 61.828125 40.699219 L 61.632812 40.585938 L 61.625 40.589844 C 61.613281 40.597656 61.597656 40.601562 61.582031 40.601562 C 61.566406 40.601562 61.550781 40.597656 61.535156 40.589844 L 61.296875 40.449219 C 61.269531 40.433594 61.253906 40.402344 61.253906 40.375 C 61.253906 40.339844 61.269531 40.3125 61.296875 40.296875 L 63.601562 38.96875 C 63.632812 38.953125 63.664062 38.953125 63.691406 38.96875 L 63.933594 39.109375 C 63.960938 39.125 63.976562 39.15625 63.976562 39.183594 C 63.976562 39.1875 63.976562 39.1875 63.976562 39.191406 L 64.210938 39.328125 L 64.40625 39.214844 C 64.4375 39.199219 64.46875 39.199219 64.496094 39.214844 L 65.863281 40.003906 C 65.890625 40.019531 65.90625 40.050781 65.90625 40.082031 C 65.90625 40.113281 65.890625 40.140625 65.863281 40.15625 L 65.753906 40.21875 L 66.039062 40.382812 L 66.238281 40.269531 C 66.265625 40.253906 66.300781 40.253906 66.328125 40.269531 L 67.691406 41.0625 C 67.71875 41.078125 67.734375 41.109375 67.734375 41.136719 C 67.734375 41.171875 67.71875 41.199219 67.691406 41.214844 L 67.585938 41.277344 L 67.78125 41.390625 L 67.785156 41.386719 C 67.816406 41.371094 67.847656 41.371094 67.875 41.386719 L 68.117188 41.523438 C 68.144531 41.539062 68.160156 41.570312 68.160156 41.601562 C 68.160156 41.632812 68.144531 41.660156 68.117188 41.679688 L 67.980469 41.753906 L 68.183594 41.871094 C 68.210938 41.886719 68.226562 41.917969 68.226562 41.949219 C 68.222656 41.980469 68.207031 42.011719 68.179688 42.027344 Z M 65.472656 39.214844 C 65.5 39.171875 65.554688 39.15625 65.597656 39.183594 L 65.914062 39.367188 C 65.957031 39.390625 65.972656 39.445312 65.945312 39.488281 C 65.929688 39.519531 65.898438 39.535156 65.871094 39.535156 C 65.851562 39.535156 65.839844 39.53125 65.824219 39.523438 L 65.507812 39.339844 C 65.460938 39.3125 65.449219 39.257812 65.472656 39.214844 Z M 66.261719 39.671875 C 66.289062 39.628906 66.34375 39.617188 66.386719 39.640625 L 66.703125 39.824219 C 66.746094 39.847656 66.761719 39.90625 66.738281 39.945312 C 66.71875 39.976562 66.691406 39.992188 66.660156 39.992188 C 66.644531 39.992188 66.628906 39.988281 66.613281 39.976562 L 66.296875 39.796875 C 66.253906 39.773438 66.238281 39.714844 66.261719 39.671875 Z M 67.042969 40.164062 C 67.046875 40.15625 67.050781 40.140625 67.054688 40.132812 C 67.082031 40.089844 67.136719 40.074219 67.179688 40.097656 L 67.453125 40.257812 L 67.496094 40.28125 C 67.539062 40.308594 67.554688 40.363281 67.527344 40.402344 C 67.511719 40.433594 67.480469 40.449219 67.453125 40.449219 C 67.433594 40.449219 67.421875 40.445312 67.40625 40.4375 L 67.363281 40.410156 L 67.089844 40.253906 C 67.054688 40.234375 67.039062 40.199219 67.042969 40.164062 Z M 68.320312 40.863281 C 68.304688 40.890625 68.273438 40.90625 68.242188 40.90625 C 68.226562 40.90625 68.210938 40.90625 68.195312 40.894531 L 67.878906 40.710938 C 67.847656 40.695312 67.832031 40.660156 67.835938 40.621094 C 67.835938 40.613281 67.839844 40.597656 67.84375 40.589844 C 67.871094 40.546875 67.925781 40.53125 67.96875 40.554688 L 68.285156 40.738281 C 68.320312 40.757812 68.335938 40.792969 68.332031 40.828125 C 68.328125 40.839844 68.324219 40.851562 68.320312 40.863281 Z M 69.109375 41.320312 C 69.09375 41.351562 69.0625 41.367188 69.03125 41.367188 C 69.015625 41.367188 69 41.363281 68.988281 41.351562 L 68.671875 41.171875 C 68.636719 41.152344 68.621094 41.117188 68.625 41.082031 C 68.625 41.070312 68.628906 41.058594 68.636719 41.046875 C 68.660156 41.003906 68.71875 40.988281 68.761719 41.015625 L 69.078125 41.195312 C 69.109375 41.214844 69.125 41.25 69.121094 41.285156 C 69.121094 41.300781 69.117188 41.308594 69.109375 41.320312 Z M 72.078125 39.242188 C 72.105469 39.257812 72.121094 39.289062 72.121094 39.316406 C 72.121094 39.351562 72.105469 39.378906 72.078125 39.394531 L 71.941406 39.472656 L 72.140625 39.585938 C 72.167969 39.601562 72.1875 39.632812 72.1875 39.664062 C 72.1875 39.695312 72.167969 39.726562 72.140625 39.742188 L 71.972656 39.839844 C 71.957031 39.847656 71.941406 39.851562 71.925781 39.851562 C 71.910156 39.851562 71.894531 39.847656 71.882812 39.839844 L 71.59375 39.671875 L 70.347656 40.390625 L 70.550781 40.503906 C 70.578125 40.519531 70.59375 40.550781 70.59375 40.582031 C 70.59375 40.613281 70.578125 40.640625 70.550781 40.660156 L 70.375 40.757812 C 70.363281 40.765625 70.347656 40.769531 70.332031 40.769531 C 70.316406 40.769531 70.300781 40.765625 70.285156 40.757812 L 70 40.589844 L 69.773438 40.71875 C 69.761719 40.730469 69.746094 40.730469 69.730469 40.730469 C 69.714844 40.730469 69.699219 40.730469 69.683594 40.71875 L 69.445312 40.582031 C 69.417969 40.566406 69.402344 40.535156 69.402344 40.503906 C 69.402344 40.503906 69.402344 40.5 69.402344 40.5 L 69.167969 40.363281 L 68.96875 40.476562 C 68.957031 40.484375 68.941406 40.488281 68.925781 40.488281 C 68.910156 40.488281 68.894531 40.484375 68.878906 40.476562 L 68.046875 39.992188 L 67.960938 40.042969 C 67.945312 40.046875 67.933594 40.054688 67.914062 40.054688 C 67.898438 40.054688 67.886719 40.050781 67.871094 40.042969 L 67.1875 39.644531 C 67.160156 39.628906 67.144531 39.601562 67.144531 39.570312 C 67.144531 39.535156 67.160156 39.507812 67.1875 39.492188 L 67.425781 39.355469 L 67.335938 39.304688 L 67.140625 39.417969 C 67.125 39.421875 67.109375 39.429688 67.09375 39.429688 C 67.078125 39.429688 67.0625 39.425781 67.050781 39.417969 L 65.6875 38.625 C 65.660156 38.609375 65.640625 38.582031 65.640625 38.550781 C 65.640625 38.515625 65.660156 38.488281 65.6875 38.472656 L 65.792969 38.410156 L 65.59375 38.296875 L 65.589844 38.300781 C 65.574219 38.308594 65.5625 38.316406 65.546875 38.316406 C 65.527344 38.316406 65.515625 38.3125 65.5 38.300781 L 65.261719 38.164062 C 65.234375 38.148438 65.214844 38.117188 65.214844 38.085938 C 65.214844 38.054688 65.234375 38.027344 65.261719 38.007812 L 67.566406 36.679688 C 67.59375 36.664062 67.628906 36.664062 67.65625 36.679688 L 67.894531 36.820312 C 67.921875 36.835938 67.941406 36.867188 67.941406 36.898438 C 67.941406 36.898438 67.9375 36.898438 67.9375 36.902344 L 68.175781 37.039062 L 68.371094 36.925781 C 68.398438 36.910156 68.433594 36.910156 68.460938 36.925781 L 69.824219 37.714844 C 69.851562 37.730469 69.871094 37.761719 69.871094 37.792969 C 69.871094 37.824219 69.851562 37.851562 69.824219 37.871094 L 69.71875 37.929688 L 70.003906 38.09375 L 70.199219 37.984375 C 70.230469 37.964844 70.261719 37.964844 70.289062 37.984375 L 71.65625 38.773438 C 71.679688 38.789062 71.699219 38.820312 71.699219 38.847656 C 71.699219 38.882812 71.679688 38.910156 71.65625 38.925781 L 71.546875 38.988281 L 71.746094 39.101562 L 71.75 39.097656 C 71.777344 39.082031 71.8125 39.082031 71.839844 39.097656 Z M 31.667969 47.957031 C 31.667969 47.515625 31.957031 47.109375 32.484375 46.804688 C 32.488281 46.804688 32.488281 46.804688 32.492188 46.804688 C 32.5 46.800781 32.503906 46.796875 32.511719 46.796875 C 32.515625 46.796875 32.523438 46.796875 32.53125 46.796875 C 32.535156 46.796875 32.539062 46.796875 32.546875 46.796875 C 32.550781 46.800781 32.554688 46.800781 32.5625 46.804688 C 32.566406 46.804688 32.570312 46.804688 32.574219 46.804688 L 34.285156 47.800781 L 40.417969 44.269531 L 31.339844 39.007812 L 17.472656 47 L 21.59375 49.390625 L 21.714844 49.320312 C 21.742188 49.304688 21.777344 49.304688 21.804688 49.320312 L 24.917969 51.125 C 24.945312 51.144531 24.964844 51.171875 24.964844 51.203125 C 24.964844 51.234375 24.945312 51.265625 24.917969 51.28125 L 24.890625 51.296875 L 26.542969 52.253906 L 32.265625 48.960938 C 31.878906 48.679688 31.664062 48.328125 31.667969 47.957031 Z M 38.226562 43.515625 L 39.558594 44.285156 C 39.582031 44.300781 39.601562 44.332031 39.601562 44.363281 C 39.601562 44.394531 39.582031 44.421875 39.558594 44.4375 L 37.722656 45.496094 C 37.707031 45.503906 37.695312 45.507812 37.675781 45.507812 C 37.660156 45.507812 37.648438 45.503906 37.632812 45.496094 L 37.292969 45.296875 L 37.109375 45.402344 C 37.09375 45.410156 37.078125 45.414062 37.0625 45.414062 C 37.046875 45.414062 37.03125 45.410156 37.019531 45.402344 L 36.460938 45.078125 C 36.433594 45.0625 36.414062 45.03125 36.414062 45.003906 C 36.414062 44.96875 36.433594 44.941406 36.460938 44.925781 L 36.554688 44.871094 L 36.304688 44.726562 C 36.277344 44.710938 36.257812 44.679688 36.257812 44.648438 C 36.257812 44.617188 36.277344 44.585938 36.304688 44.570312 L 38.136719 43.515625 C 38.164062 43.5 38.199219 43.5 38.226562 43.515625 Z M 36.625 42.585938 L 37.953125 43.355469 C 37.980469 43.371094 37.996094 43.402344 37.996094 43.433594 C 37.996094 43.464844 37.980469 43.496094 37.953125 43.511719 L 36.117188 44.566406 C 36.105469 44.574219 36.089844 44.578125 36.074219 44.578125 C 36.058594 44.578125 36.042969 44.574219 36.027344 44.566406 L 35.6875 44.367188 L 35.503906 44.476562 C 35.492188 44.484375 35.476562 44.488281 35.460938 44.488281 C 35.445312 44.488281 35.429688 44.484375 35.414062 44.476562 L 34.855469 44.152344 C 34.828125 44.136719 34.8125 44.105469 34.8125 44.074219 C 34.8125 44.042969 34.828125 44.011719 34.855469 43.996094 L 34.949219 43.945312 L 34.699219 43.796875 C 34.671875 43.78125 34.65625 43.75 34.65625 43.722656 C 34.65625 43.6875 34.671875 43.660156 34.699219 43.644531 L 36.535156 42.589844 C 36.5625 42.570312 36.597656 42.570312 36.625 42.585938 Z M 35.019531 41.65625 L 36.347656 42.425781 C 36.375 42.441406 36.394531 42.472656 36.394531 42.503906 C 36.394531 42.535156 36.375 42.566406 36.347656 42.582031 L 34.515625 43.636719 C 34.5 43.644531 34.484375 43.648438 34.46875 43.648438 C 34.453125 43.648438 34.4375 43.644531 34.425781 43.636719 L 34.085938 43.4375 L 33.902344 43.546875 C 33.886719 43.550781 33.871094 43.558594 33.855469 43.558594 C 33.839844 43.558594 33.824219 43.554688 33.8125 43.546875 L 33.253906 43.222656 C 33.226562 43.207031 33.207031 43.175781 33.207031 43.144531 C 33.207031 43.113281 33.226562 43.082031 33.253906 43.066406 L 33.347656 43.011719 L 33.097656 42.867188 C 33.070312 42.851562 33.050781 42.820312 33.050781 42.792969 C 33.050781 42.757812 33.070312 42.730469 33.097656 42.714844 L 34.929688 41.660156 C 34.957031 41.640625 34.992188 41.640625 35.019531 41.65625 Z M 19.703125 48.03125 C 19.6875 48.03125 19.671875 48.027344 19.65625 48.019531 L 18.132812 47.136719 C 18.105469 47.117188 18.089844 47.089844 18.089844 47.058594 C 18.089844 47.023438 18.105469 46.996094 18.132812 46.980469 L 31.164062 39.476562 C 31.191406 39.460938 31.226562 39.460938 31.253906 39.476562 L 34.417969 41.308594 C 34.445312 41.328125 34.460938 41.355469 34.460938 41.386719 C 34.460938 41.417969 34.445312 41.449219 34.417969 41.464844 L 32.882812 42.347656 C 32.855469 42.363281 32.820312 42.363281 32.792969 42.347656 L 31.203125 41.425781 L 19.746094 48.019531 C 19.734375 48.027344 19.71875 48.03125 19.703125 48.03125 Z M 23.527344 47.910156 C 23.515625 47.976562 23.472656 48.03125 23.402344 48.070312 L 22.53125 48.574219 C 22.464844 48.613281 22.378906 48.632812 22.292969 48.632812 C 22.238281 48.632812 22.183594 48.625 22.136719 48.609375 C 22.105469 48.597656 22.078125 48.585938 22.050781 48.574219 C 21.972656 48.527344 21.925781 48.457031 21.925781 48.382812 C 21.925781 48.367188 21.929688 48.351562 21.933594 48.332031 C 21.890625 48.34375 21.839844 48.347656 21.792969 48.347656 C 21.699219 48.347656 21.605469 48.328125 21.527344 48.289062 L 21.140625 48.101562 C 21.03125 48.046875 20.96875 47.964844 20.964844 47.871094 C 20.960938 47.78125 21.015625 47.699219 21.113281 47.644531 L 21.980469 47.144531 C 22.15625 47.046875 22.429688 47.050781 22.589844 47.160156 L 22.917969 47.386719 C 23 47.441406 23.042969 47.519531 23.042969 47.601562 C 23.042969 47.617188 23.035156 47.632812 23.03125 47.648438 C 23.15625 47.617188 23.304688 47.628906 23.40625 47.6875 C 23.425781 47.699219 23.441406 47.714844 23.460938 47.730469 C 23.464844 47.734375 23.464844 47.734375 23.46875 47.738281 C 23.472656 47.742188 23.476562 47.742188 23.476562 47.746094 C 23.519531 47.796875 23.535156 47.851562 23.527344 47.910156 Z M 26.304688 46.3125 C 26.292969 46.375 26.25 46.433594 26.179688 46.472656 L 25.308594 46.976562 C 25.242188 47.015625 25.15625 47.035156 25.070312 47.035156 C 25.015625 47.035156 24.960938 47.027344 24.914062 47.015625 C 24.882812 47.003906 24.855469 46.992188 24.828125 46.980469 C 24.75 46.933594 24.703125 46.863281 24.703125 46.789062 C 24.703125 46.773438 24.707031 46.753906 24.714844 46.738281 C 24.667969 46.75 24.621094 46.753906 24.570312 46.753906 C 24.476562 46.753906 24.382812 46.734375 24.304688 46.695312 L 23.917969 46.507812 C 23.8125 46.453125 23.746094 46.371094 23.746094 46.277344 C 23.742188 46.1875 23.796875 46.105469 23.894531 46.050781 L 24.757812 45.554688 C 24.933594 45.453125 25.207031 45.460938 25.371094 45.570312 L 25.695312 45.796875 C 25.777344 45.851562 25.824219 45.925781 25.820312 46.007812 C 25.820312 46.027344 25.8125 46.042969 25.808594 46.058594 C 25.933594 46.027344 26.082031 46.039062 26.183594 46.097656 C 26.203125 46.113281 26.21875 46.125 26.238281 46.140625 C 26.242188 46.140625 26.242188 46.144531 26.246094 46.148438 C 26.246094 46.148438 26.25 46.152344 26.253906 46.15625 C 26.292969 46.195312 26.3125 46.253906 26.304688 46.3125 Z M 28.957031 44.875 L 28.082031 45.378906 C 28.015625 45.414062 27.929688 45.433594 27.84375 45.433594 C 27.792969 45.433594 27.738281 45.429688 27.6875 45.414062 C 27.660156 45.40625 27.628906 45.390625 27.605469 45.378906 C 27.527344 45.332031 27.480469 45.261719 27.480469 45.1875 C 27.480469 45.167969 27.484375 45.152344 27.488281 45.136719 C 27.441406 45.144531 27.394531 45.152344 27.34375 45.152344 C 27.253906 45.152344 27.160156 45.132812 27.078125 45.09375 L 26.691406 44.902344 C 26.585938 44.851562 26.523438 44.769531 26.519531 44.675781 C 26.515625 44.585938 26.570312 44.503906 26.667969 44.449219 L 27.53125 43.949219 C 27.710938 43.847656 27.984375 43.855469 28.144531 43.964844 L 28.472656 44.1875 C 28.554688 44.246094 28.597656 44.320312 28.59375 44.402344 C 28.59375 44.421875 28.589844 44.4375 28.585938 44.453125 C 28.710938 44.421875 28.855469 44.433594 28.960938 44.496094 C 28.980469 44.507812 28.996094 44.519531 29.015625 44.539062 C 29.015625 44.539062 29.019531 44.542969 29.019531 44.542969 C 29.023438 44.542969 29.027344 44.546875 29.027344 44.546875 C 29.03125 44.550781 29.03125 44.550781 29.035156 44.554688 C 29.035156 44.554688 29.035156 44.558594 29.039062 44.5625 C 29.039062 44.5625 29.042969 44.566406 29.042969 44.566406 C 29.042969 44.566406 29.042969 44.570312 29.042969 44.570312 C 29.074219 44.613281 29.089844 44.664062 29.082031 44.714844 C 29.070312 44.777344 29.027344 44.835938 28.957031 44.875 Z M 30.621094 43.835938 C 30.570312 43.835938 30.515625 43.832031 30.464844 43.8125 C 30.433594 43.804688 30.40625 43.792969 30.382812 43.777344 C 30.304688 43.730469 30.257812 43.664062 30.257812 43.589844 C 30.257812 43.570312 30.261719 43.554688 30.265625 43.539062 C 30.222656 43.546875 30.171875 43.554688 30.125 43.554688 C 30.03125 43.554688 29.9375 43.535156 29.859375 43.496094 L 29.46875 43.304688 C 29.363281 43.253906 29.300781 43.167969 29.296875 43.078125 C 29.296875 42.988281 29.347656 42.902344 29.445312 42.847656 L 30.308594 42.351562 C 30.484375 42.25 30.757812 42.257812 30.917969 42.367188 L 31.246094 42.59375 C 31.328125 42.648438 31.371094 42.722656 31.371094 42.804688 C 31.371094 42.824219 31.363281 42.839844 31.363281 42.855469 C 31.484375 42.824219 31.632812 42.835938 31.734375 42.894531 C 31.761719 42.910156 31.785156 42.929688 31.804688 42.949219 C 31.847656 42.996094 31.867188 43.058594 31.859375 43.113281 C 31.847656 43.179688 31.804688 43.234375 31.734375 43.277344 L 30.863281 43.777344 C 30.792969 43.816406 30.710938 43.835938 30.621094 43.835938 Z M 46.785156 44.621094 C 47.167969 44.902344 47.378906 45.25 47.378906 45.621094 C 47.378906 46.058594 47.089844 46.46875 46.5625 46.769531 C 46.546875 46.777344 46.535156 46.78125 46.515625 46.78125 C 46.5 46.78125 46.488281 46.777344 46.472656 46.769531 L 44.769531 45.78125 L 44.425781 45.980469 L 53.066406 50.984375 C 53.066406 50.988281 53.070312 50.988281 53.070312 50.988281 L 55.484375 49.601562 L 55.457031 49.585938 C 55.429688 49.570312 55.410156 49.539062 55.410156 49.507812 C 55.410156 49.476562 55.429688 49.445312 55.457031 49.429688 L 58.59375 47.625 C 58.621094 47.609375 58.65625 47.609375 58.683594 47.625 L 58.800781 47.691406 L 61.351562 46.226562 L 52.707031 41.214844 Z M 53.832031 49.808594 C 53.824219 49.816406 53.816406 49.816406 53.808594 49.824219 L 53.417969 50.015625 C 53.339844 50.050781 53.246094 50.070312 53.152344 50.070312 C 53.105469 50.070312 53.054688 50.0625 53.007812 50.054688 C 53.011719 50.070312 53.015625 50.089844 53.015625 50.105469 C 53.015625 50.183594 52.96875 50.25 52.890625 50.296875 C 52.863281 50.3125 52.832031 50.324219 52.804688 50.332031 C 52.753906 50.347656 52.703125 50.355469 52.648438 50.355469 C 52.5625 50.355469 52.476562 50.335938 52.410156 50.296875 L 51.542969 49.792969 C 51.472656 49.753906 51.429688 49.699219 51.421875 49.632812 C 51.410156 49.574219 51.429688 49.515625 51.472656 49.46875 C 51.476562 49.46875 51.480469 49.464844 51.480469 49.464844 C 51.484375 49.460938 51.488281 49.460938 51.492188 49.457031 C 51.507812 49.441406 51.523438 49.429688 51.542969 49.417969 C 51.648438 49.355469 51.796875 49.34375 51.921875 49.375 C 51.917969 49.359375 51.914062 49.34375 51.914062 49.328125 C 51.910156 49.246094 51.953125 49.167969 52.035156 49.113281 L 52.367188 48.886719 C 52.375 48.882812 52.382812 48.878906 52.394531 48.871094 C 52.554688 48.777344 52.8125 48.777344 52.976562 48.871094 L 53.835938 49.371094 C 53.929688 49.421875 53.980469 49.503906 53.980469 49.589844 C 53.980469 49.675781 53.925781 49.753906 53.832031 49.808594 Z M 58.597656 44.714844 L 60.789062 45.984375 C 60.816406 46 60.835938 46.03125 60.835938 46.0625 C 60.835938 46.09375 60.816406 46.121094 60.789062 46.136719 L 59.605469 46.820312 C 59.605469 46.820312 59.605469 46.820312 59.601562 46.820312 L 55.835938 48.988281 C 55.820312 48.996094 55.808594 49 55.789062 49 C 55.773438 49 55.761719 48.996094 55.746094 48.988281 L 53.554688 47.71875 C 53.527344 47.703125 53.511719 47.671875 53.511719 47.644531 C 53.511719 47.609375 53.527344 47.582031 53.554688 47.566406 L 56.730469 45.738281 L 58.507812 44.714844 C 58.535156 44.699219 58.570312 44.699219 58.597656 44.714844 Z M 57.234375 44.046875 C 57.261719 44.0625 57.28125 44.09375 57.28125 44.121094 C 57.28125 44.15625 57.261719 44.183594 57.234375 44.199219 L 55.699219 45.082031 C 55.683594 45.09375 55.671875 45.097656 55.652344 45.097656 C 55.636719 45.097656 55.625 45.09375 55.609375 45.082031 L 53.464844 43.839844 L 53.464844 44.300781 C 53.464844 44.386719 53.410156 44.464844 53.316406 44.519531 C 53.234375 44.566406 53.132812 44.59375 53.023438 44.59375 C 53.011719 44.59375 53 44.59375 52.988281 44.59375 L 52.480469 44.570312 C 52.308594 44.5625 52.171875 44.492188 52.113281 44.394531 L 52.101562 44.394531 C 52.078125 44.433594 52.046875 44.46875 52 44.496094 C 51.933594 44.535156 51.847656 44.554688 51.757812 44.554688 C 51.636719 44.554688 51.523438 44.515625 51.457031 44.449219 C 51.417969 44.410156 51.394531 44.359375 51.394531 44.304688 L 51.398438 43.59375 C 51.398438 43.523438 51.445312 43.453125 51.523438 43.40625 C 51.5625 43.386719 51.601562 43.371094 51.648438 43.363281 C 51.648438 43.363281 51.652344 43.363281 51.652344 43.363281 C 51.65625 43.359375 51.660156 43.359375 51.667969 43.355469 C 51.699219 43.351562 51.730469 43.347656 51.765625 43.347656 C 51.929688 43.347656 52.058594 43.414062 52.109375 43.511719 L 52.117188 43.511719 C 52.140625 43.46875 52.179688 43.433594 52.226562 43.402344 C 52.300781 43.363281 52.390625 43.335938 52.484375 43.332031 L 52.574219 43.328125 L 51.101562 42.476562 C 51.074219 42.460938 51.058594 42.429688 51.058594 42.398438 C 51.058594 42.367188 51.074219 42.335938 51.101562 42.320312 L 52.636719 41.4375 C 52.667969 41.421875 52.699219 41.421875 52.726562 41.4375 Z M 57.03125 34.703125 C 56.640625 34.421875 56.429688 34.070312 56.429688 33.699219 C 56.429688 33.261719 56.71875 32.851562 57.246094 32.550781 C 57.25 32.546875 57.253906 32.546875 57.257812 32.546875 C 57.261719 32.542969 57.265625 32.539062 57.273438 32.539062 C 57.28125 32.539062 57.285156 32.539062 57.292969 32.539062 C 57.296875 32.539062 57.304688 32.539062 57.308594 32.539062 C 57.316406 32.542969 57.320312 32.542969 57.328125 32.546875 C 57.328125 32.550781 57.332031 32.550781 57.335938 32.550781 L 59.046875 33.542969 L 61.324219 32.234375 L 52.25 26.972656 L 47.578125 29.652344 L 56.660156 34.917969 Z M 50.277344 30.011719 C 50.015625 30.160156 49.691406 30.242188 49.398438 30.242188 C 49.179688 30.242188 48.972656 30.199219 48.820312 30.109375 C 48.683594 30.03125 48.601562 29.921875 48.578125 29.800781 C 48.554688 29.6875 48.585938 29.570312 48.664062 29.457031 C 48.660156 29.441406 48.660156 29.429688 48.660156 29.414062 C 48.667969 29.371094 48.695312 29.335938 48.742188 29.308594 C 48.765625 29.296875 48.792969 29.289062 48.824219 29.28125 C 48.828125 29.277344 48.835938 29.273438 48.839844 29.269531 C 48.839844 29.265625 48.835938 29.257812 48.835938 29.253906 C 48.835938 29.222656 48.855469 29.191406 48.882812 29.175781 L 49.039062 29.085938 C 49.070312 29.070312 49.105469 29.070312 49.132812 29.085938 L 49.144531 29.09375 C 49.167969 29.082031 49.1875 29.074219 49.210938 29.0625 C 49.226562 29.039062 49.246094 29.019531 49.273438 29.003906 C 49.332031 28.96875 49.414062 28.960938 49.484375 28.984375 C 49.847656 28.902344 50.214844 28.9375 50.445312 29.070312 C 50.609375 29.164062 50.695312 29.300781 50.695312 29.453125 C 50.699219 29.652344 50.546875 29.859375 50.277344 30.011719 Z M 55.960938 30.359375 C 55.945312 30.359375 55.929688 30.355469 55.914062 30.34375 L 55.707031 30.226562 L 55.378906 30.414062 C 55.3125 30.507812 55.21875 30.59375 55.09375 30.664062 C 54.855469 30.800781 54.5625 30.867188 54.277344 30.867188 C 54.039062 30.867188 53.804688 30.820312 53.628906 30.714844 C 53.445312 30.609375 53.34375 30.460938 53.34375 30.292969 C 53.34375 30.097656 53.484375 29.90625 53.722656 29.769531 C 53.847656 29.695312 54 29.644531 54.15625 29.609375 L 54.398438 29.46875 L 54.277344 29.398438 C 54.253906 29.382812 54.234375 29.351562 54.234375 29.320312 C 54.234375 29.289062 54.253906 29.257812 54.277344 29.242188 L 54.988281 28.832031 C 55.019531 28.816406 55.054688 28.816406 55.078125 28.832031 L 56.714844 29.78125 C 56.742188 29.796875 56.757812 29.828125 56.757812 29.859375 C 56.757812 29.890625 56.742188 29.917969 56.714844 29.9375 L 56.003906 30.34375 C 55.992188 30.351562 55.972656 30.359375 55.960938 30.359375 Z M 55.8125 16.3125 C 54.296875 17.4375 19.066406 43.4375 4.339844 46.292969 C 2.628906 46.621094 1.128906 46.761719 0.675781 46.800781 C 0.933594 47.253906 1.929688 48.902344 3.605469 50.265625 C 11.523438 56.714844 33.121094 67.367188 34.234375 67.917969 L 89.730469 35.964844 Z M 73.898438 39.410156 L 59.15625 47.898438 L 59.183594 47.914062 C 59.210938 47.929688 59.230469 47.960938 59.230469 47.992188 C 59.230469 48.023438 59.210938 48.050781 59.183594 48.066406 L 56.046875 49.875 C 56.03125 49.882812 56.019531 49.886719 56 49.886719 C 55.984375 49.886719 55.972656 49.882812 55.957031 49.875 L 55.839844 49.804688 L 45.160156 55.957031 L 45.1875 55.972656 C 45.214844 55.988281 45.230469 56.019531 45.230469 56.046875 C 45.230469 56.082031 45.214844 56.109375 45.1875 56.125 L 42.050781 57.929688 C 42.035156 57.941406 42.019531 57.945312 42.003906 57.945312 C 41.988281 57.945312 41.972656 57.941406 41.960938 57.929688 L 41.84375 57.863281 L 38.753906 59.640625 C 38.726562 59.65625 38.695312 59.664062 38.664062 59.664062 C 38.636719 59.664062 38.601562 59.65625 38.574219 59.636719 L 29.574219 54.421875 L 26.457031 52.613281 L 24.53125 51.5 L 24.414062 51.566406 C 24.402344 51.578125 24.386719 51.582031 24.371094 51.582031 C 24.355469 51.582031 24.339844 51.578125 24.324219 51.566406 L 21.210938 49.761719 C 21.183594 49.746094 21.164062 49.714844 21.164062 49.683594 C 21.164062 49.652344 21.183594 49.625 21.210938 49.609375 L 21.238281 49.59375 L 17.023438 47.148438 C 16.96875 47.117188 16.933594 47.058594 16.933594 46.992188 C 16.933594 46.929688 16.96875 46.871094 17.023438 46.835938 L 32.703125 37.800781 L 32.683594 37.789062 C 32.65625 37.773438 32.636719 37.742188 32.636719 37.710938 C 32.636719 37.679688 32.65625 37.648438 32.683594 37.632812 L 35.820312 35.828125 C 35.847656 35.8125 35.882812 35.8125 35.910156 35.828125 L 36.019531 35.894531 L 37.421875 35.085938 L 37.402344 35.074219 C 37.375 35.058594 37.355469 35.027344 37.355469 34.996094 C 37.355469 34.964844 37.375 34.9375 37.402344 34.921875 L 40.539062 33.113281 C 40.566406 33.097656 40.601562 33.097656 40.628906 33.113281 L 40.734375 33.175781 L 43.140625 31.792969 C 43.226562 31.742188 43.335938 31.773438 43.386719 31.859375 L 43.320312 31.898438 L 44.761719 32.734375 C 45.117188 32.515625 45.3125 32.238281 45.3125 31.949219 C 45.3125 31.644531 45.105469 31.359375 44.726562 31.140625 C 44.710938 31.132812 44.703125 31.121094 44.695312 31.105469 C 44.679688 31.078125 44.675781 31.046875 44.691406 31.015625 C 44.71875 30.972656 44.773438 30.957031 44.816406 30.984375 C 44.832031 30.992188 44.847656 31 44.863281 31.007812 C 45.640625 31.433594 46.84375 31.449219 47.660156 31.058594 L 46.269531 30.253906 C 46.253906 30.246094 46.246094 30.234375 46.238281 30.21875 L 46.15625 30.265625 C 46.105469 30.179688 46.136719 30.070312 46.222656 30.019531 L 52.164062 26.613281 C 52.21875 26.578125 52.285156 26.578125 52.34375 26.613281 L 68.882812 36.199219 L 69.003906 36.128906 C 69.03125 36.113281 69.066406 36.113281 69.09375 36.128906 L 72.207031 37.9375 C 72.234375 37.953125 72.253906 37.984375 72.253906 38.011719 C 72.253906 38.046875 72.234375 38.074219 72.207031 38.089844 L 72.179688 38.105469 L 73.898438 39.101562 C 73.953125 39.136719 73.988281 39.195312 73.988281 39.257812 C 73.988281 39.324219 73.953125 39.378906 73.898438 39.410156 Z M 56.703125 45.960938 L 56.746094 46.441406 C 56.746094 46.464844 56.761719 46.488281 56.78125 46.503906 C 56.800781 46.519531 56.828125 46.527344 56.851562 46.519531 L 58.449219 46.203125 L 59.378906 46.746094 L 55.792969 48.8125 L 53.78125 47.644531 Z M 59.71875 46.539062 L 60.304688 46.203125 C 60.382812 46.160156 60.429688 46.089844 60.429688 46.015625 C 60.429688 46.003906 60.429688 45.992188 60.429688 45.984375 L 60.5625 46.0625 L 59.558594 46.640625 L 59.535156 46.628906 L 59.488281 46.601562 C 59.511719 46.601562 59.53125 46.59375 59.554688 46.589844 C 59.574219 46.589844 59.589844 46.589844 59.609375 46.582031 C 59.648438 46.574219 59.6875 46.558594 59.71875 46.539062 Z M 57.980469 45.933594 L 57.039062 45.769531 L 58.550781 44.898438 L 58.621094 44.9375 C 58.59375 44.9375 58.570312 44.941406 58.546875 44.945312 C 58.53125 44.945312 58.519531 44.945312 58.503906 44.949219 C 58.472656 44.957031 58.441406 44.96875 58.414062 44.984375 C 58.410156 44.988281 58.402344 44.988281 58.394531 44.992188 L 57.8125 45.328125 C 57.730469 45.375 57.6875 45.441406 57.6875 45.515625 C 57.6875 45.589844 57.730469 45.660156 57.8125 45.703125 L 58.296875 45.984375 Z M 58.488281 45.148438 C 58.566406 45.105469 58.703125 45.105469 58.777344 45.148438 L 60.21875 45.980469 C 60.246094 45.996094 60.25 46.007812 60.25 46.011719 C 60.25 46.015625 60.246094 46.027344 60.21875 46.046875 L 59.632812 46.382812 C 59.554688 46.429688 59.417969 46.429688 59.339844 46.382812 L 57.902344 45.550781 C 57.875 45.535156 57.867188 45.519531 57.867188 45.519531 C 57.867188 45.519531 57.875 45.503906 57.902344 45.488281 Z M 56.914062 46.324219 L 56.878906 45.921875 L 57.972656 46.117188 Z M 38.527344 57.746094 L 37.546875 58.308594 L 33.984375 56.242188 L 36.007812 55.078125 L 38.847656 56.726562 L 38.09375 56.75 C 38.0625 56.75 38.03125 56.765625 38.019531 56.796875 C 38 56.820312 38.003906 56.855469 38.019531 56.886719 Z M 39.203125 56.929688 L 40.753906 57.824219 L 40.613281 57.90625 C 40.617188 57.894531 40.617188 57.882812 40.617188 57.871094 C 40.617188 57.796875 40.574219 57.730469 40.496094 57.683594 L 39.914062 57.347656 C 39.847656 57.308594 39.761719 57.289062 39.675781 57.289062 C 39.621094 57.289062 39.5625 57.300781 39.511719 57.320312 C 39.488281 57.328125 39.460938 57.332031 39.441406 57.347656 L 38.78125 57.726562 L 39.039062 57.238281 Z M 38.722656 58.941406 C 38.746094 58.945312 38.769531 58.949219 38.792969 58.953125 L 38.726562 58.992188 L 37.726562 58.414062 L 37.871094 58.332031 C 37.867188 58.347656 37.867188 58.359375 37.867188 58.371094 C 37.867188 58.445312 37.910156 58.511719 37.992188 58.558594 L 38.570312 58.894531 C 38.605469 58.914062 38.640625 58.925781 38.679688 58.9375 C 38.691406 58.941406 38.707031 58.941406 38.722656 58.941406 Z M 40.4375 57.871094 C 40.4375 57.871094 40.429688 57.886719 40.402344 57.90625 L 38.957031 58.738281 C 38.878906 58.78125 38.742188 58.78125 38.664062 58.738281 L 38.082031 58.402344 C 38.054688 58.386719 38.046875 58.371094 38.046875 58.371094 C 38.046875 58.367188 38.054688 58.351562 38.082031 58.335938 L 39.53125 57.503906 C 39.605469 57.457031 39.742188 57.457031 39.820312 57.503906 L 40.402344 57.839844 C 40.429688 57.855469 40.4375 57.867188 40.4375 57.871094 Z M 38.25 56.921875 L 39.015625 56.898438 L 38.648438 57.59375 Z M 50.519531 29.449219 C 50.519531 29.585938 50.394531 29.738281 50.1875 29.855469 C 49.796875 30.082031 49.210938 30.128906 48.910156 29.953125 C 48.820312 29.902344 48.765625 29.835938 48.753906 29.765625 C 48.742188 29.710938 48.753906 29.648438 48.789062 29.585938 C 48.792969 29.585938 48.792969 29.589844 48.796875 29.589844 C 48.804688 29.589844 48.8125 29.589844 48.816406 29.59375 C 48.835938 29.597656 48.847656 29.597656 48.863281 29.597656 C 48.867188 29.597656 48.871094 29.601562 48.875 29.601562 C 48.878906 29.601562 48.882812 29.597656 48.886719 29.597656 C 48.902344 29.597656 48.917969 29.597656 48.929688 29.59375 C 48.9375 29.589844 48.945312 29.589844 48.949219 29.589844 C 48.972656 29.582031 48.992188 29.578125 49.007812 29.566406 C 49.03125 29.554688 49.046875 29.535156 49.0625 29.515625 C 49.0625 29.515625 49.0625 29.515625 49.0625 29.511719 C 49.078125 29.496094 49.085938 29.472656 49.085938 29.453125 C 49.085938 29.449219 49.085938 29.449219 49.085938 29.449219 L 49.328125 29.585938 C 49.339844 29.59375 49.355469 29.597656 49.367188 29.597656 C 49.371094 29.597656 49.371094 29.597656 49.371094 29.597656 C 49.375 29.597656 49.378906 29.597656 49.378906 29.597656 C 49.386719 29.597656 49.390625 29.597656 49.398438 29.59375 C 49.394531 29.605469 49.394531 29.609375 49.394531 29.621094 C 49.394531 29.671875 49.425781 29.722656 49.476562 29.753906 C 49.5 29.765625 49.523438 29.773438 49.546875 29.777344 C 49.554688 29.78125 49.566406 29.78125 49.574219 29.78125 C 49.589844 29.78125 49.605469 29.785156 49.617188 29.785156 C 49.621094 29.785156 49.625 29.785156 49.628906 29.785156 C 49.648438 29.785156 49.667969 29.78125 49.6875 29.777344 C 49.699219 29.777344 49.707031 29.777344 49.71875 29.773438 C 49.75 29.761719 49.777344 29.753906 49.804688 29.738281 C 49.875 29.699219 49.914062 29.640625 49.914062 29.578125 C 49.914062 29.523438 49.886719 29.476562 49.832031 29.445312 C 49.808594 29.429688 49.777344 29.421875 49.746094 29.417969 C 49.734375 29.414062 49.726562 29.414062 49.714844 29.414062 C 49.691406 29.414062 49.667969 29.414062 49.640625 29.417969 C 49.636719 29.417969 49.628906 29.417969 49.621094 29.417969 C 49.621094 29.382812 49.605469 29.355469 49.578125 29.339844 L 49.476562 29.28125 C 49.5 29.277344 49.523438 29.269531 49.539062 29.257812 C 49.550781 29.25 49.566406 29.242188 49.574219 29.230469 C 49.574219 29.230469 49.578125 29.226562 49.582031 29.226562 C 49.589844 29.21875 49.59375 29.210938 49.601562 29.203125 C 49.605469 29.199219 49.605469 29.191406 49.609375 29.1875 C 49.613281 29.183594 49.613281 29.175781 49.617188 29.167969 C 49.617188 29.164062 49.617188 29.15625 49.621094 29.148438 C 49.621094 29.144531 49.625 29.140625 49.625 29.132812 C 49.910156 29.085938 50.183594 29.117188 50.355469 29.21875 C 50.433594 29.265625 50.519531 29.339844 50.519531 29.449219 Z M 49.695312 29.59375 C 49.671875 29.605469 49.644531 29.609375 49.621094 29.609375 C 49.621094 29.609375 49.617188 29.609375 49.617188 29.609375 C 49.644531 29.597656 49.675781 29.59375 49.695312 29.59375 Z M 49.363281 29.160156 L 49.320312 29.078125 L 49.363281 29.160156 C 49.363281 29.15625 49.363281 29.15625 49.363281 29.160156 Z M 48.832031 29.464844 L 48.789062 29.386719 Z M 55.46875 30.085938 L 55.527344 30.121094 L 55.472656 30.152344 C 55.472656 30.148438 55.472656 30.140625 55.472656 30.136719 C 55.472656 30.132812 55.472656 30.125 55.46875 30.117188 C 55.46875 30.105469 55.46875 30.09375 55.46875 30.085938 Z M 55.035156 29.015625 L 56.488281 29.859375 L 55.960938 30.164062 L 54.503906 29.320312 Z M 53.625 30.46875 C 53.636719 30.492188 53.65625 30.511719 53.675781 30.53125 C 53.597656 30.476562 53.527344 30.398438 53.527344 30.289062 C 53.527344 30.21875 53.5625 30.140625 53.625 30.070312 C 53.621094 30.074219 53.621094 30.078125 53.621094 30.078125 C 53.605469 30.105469 53.589844 30.136719 53.582031 30.164062 C 53.582031 30.167969 53.582031 30.171875 53.578125 30.179688 C 53.570312 30.207031 53.5625 30.238281 53.5625 30.269531 C 53.5625 30.300781 53.570312 30.332031 53.578125 30.359375 C 53.578125 30.367188 53.582031 30.375 53.585938 30.382812 C 53.59375 30.40625 53.605469 30.429688 53.617188 30.453125 C 53.621094 30.460938 53.621094 30.464844 53.625 30.46875 Z M 55.285156 30.085938 C 55.289062 30.101562 55.292969 30.117188 55.292969 30.136719 C 55.292969 30.1875 55.277344 30.238281 55.242188 30.292969 C 55.230469 30.3125 55.214844 30.335938 55.195312 30.355469 C 55.199219 30.351562 55.199219 30.347656 55.199219 30.347656 C 55.21875 30.320312 55.230469 30.292969 55.238281 30.261719 C 55.238281 30.257812 55.238281 30.25 55.242188 30.25 C 55.25 30.21875 55.257812 30.1875 55.257812 30.15625 C 55.257812 30.125 55.25 30.09375 55.242188 30.066406 C 55.242188 30.058594 55.238281 30.050781 55.238281 30.046875 C 55.226562 30.019531 55.214844 29.996094 55.199219 29.972656 C 55.199219 29.96875 55.195312 29.964844 55.195312 29.960938 C 55.179688 29.941406 55.164062 29.921875 55.144531 29.902344 C 55.21875 29.957031 55.265625 30.019531 55.285156 30.085938 Z M 55.074219 30.160156 C 55.074219 30.25 54.996094 30.347656 54.859375 30.425781 C 54.574219 30.589844 54.128906 30.609375 53.886719 30.464844 C 53.820312 30.425781 53.746094 30.363281 53.746094 30.273438 C 53.746094 30.183594 53.820312 30.082031 53.957031 30.003906 C 54.242188 29.84375 54.6875 29.824219 54.933594 29.964844 C 54.996094 30.003906 55.074219 30.066406 55.074219 30.160156 Z M 31.339844 54.140625 L 31.148438 54.25 C 31.097656 54.28125 31.019531 54.292969 30.953125 54.285156 L 32.011719 53.675781 C 32.015625 53.675781 32.019531 53.679688 32.023438 53.683594 C 32.050781 53.695312 32.058594 53.710938 32.058594 53.71875 C 32.058594 53.71875 32.050781 53.738281 32.019531 53.753906 L 31.375 54.125 Z M 33.015625 54.230469 C 33.015625 54.25 32.996094 54.277344 32.960938 54.296875 L 32.097656 54.796875 C 31.980469 54.863281 31.78125 54.859375 31.679688 54.789062 L 31.351562 54.5625 C 31.320312 54.542969 31.304688 54.523438 31.308594 54.503906 C 31.308594 54.492188 31.324219 54.464844 31.363281 54.441406 L 31.558594 54.328125 L 31.976562 54.089844 L 32.171875 53.976562 C 32.226562 53.945312 32.300781 53.929688 32.371094 53.929688 C 32.441406 53.929688 32.507812 53.941406 32.558594 53.96875 L 32.945312 54.160156 C 32.996094 54.183594 33.015625 54.214844 33.015625 54.230469 Z M 39.28125 54.46875 C 39.28125 54.464844 39.28125 54.457031 39.292969 54.449219 L 39.289062 54.890625 L 39.289062 55.195312 C 39.28125 55.1875 39.277344 55.179688 39.277344 55.175781 Z M 39.648438 54.464844 C 39.648438 54.464844 39.648438 54.46875 39.648438 54.46875 L 39.648438 54.652344 C 39.648438 54.65625 39.648438 54.660156 39.648438 54.664062 L 39.644531 54.992188 L 39.644531 55.179688 C 39.644531 55.179688 39.632812 55.195312 39.609375 55.210938 C 39.574219 55.230469 39.523438 55.246094 39.46875 55.246094 L 39.472656 54.773438 L 39.472656 54.398438 C 39.582031 54.398438 39.640625 54.441406 39.648438 54.464844 Z M 40.566406 54.363281 L 40.988281 54.609375 L 40.984375 55.171875 C 40.984375 55.191406 40.960938 55.21875 40.925781 55.238281 C 40.867188 55.269531 40.785156 55.289062 40.699219 55.285156 L 40.191406 55.261719 C 40.046875 55.253906 39.957031 55.1875 39.957031 55.148438 L 39.960938 54.492188 C 39.960938 54.472656 39.980469 54.449219 40.019531 54.425781 C 40.0625 54.402344 40.128906 54.382812 40.195312 54.382812 Z M 49.851562 51.261719 L 49.84375 51.246094 L 49.847656 50.539062 C 49.847656 50.53125 49.855469 50.519531 49.882812 50.503906 C 49.917969 50.480469 49.96875 50.46875 50.023438 50.46875 L 50.019531 50.921875 L 50.019531 51.316406 C 49.9375 51.3125 49.875 51.289062 49.851562 51.261719 Z M 50.210938 51.246094 C 50.210938 51.25 50.210938 51.257812 50.199219 51.265625 L 50.199219 50.859375 L 50.203125 50.515625 C 50.203125 50.515625 50.207031 50.519531 50.207031 50.519531 L 50.214844 50.535156 Z M 48.828125 50.59375 C 48.847656 50.570312 48.871094 50.546875 48.886719 50.527344 C 48.902344 50.507812 48.910156 50.492188 48.921875 50.476562 C 48.929688 50.460938 48.945312 50.449219 48.953125 50.433594 L 49.300781 50.449219 C 49.445312 50.457031 49.53125 50.515625 49.535156 50.546875 L 49.535156 50.71875 C 49.535156 50.722656 49.535156 50.726562 49.535156 50.730469 L 49.535156 51.042969 C 49.535156 51.046875 49.53125 51.050781 49.53125 51.058594 L 49.53125 51.21875 C 49.527344 51.238281 49.503906 51.261719 49.472656 51.28125 C 49.425781 51.308594 49.363281 51.324219 49.292969 51.328125 L 48.785156 51.351562 C 48.667969 51.355469 48.566406 51.320312 48.527344 51.28125 C 48.515625 51.269531 48.503906 51.253906 48.503906 51.238281 L 48.507812 50.835938 C 48.511719 50.835938 48.511719 50.835938 48.515625 50.832031 C 48.570312 50.800781 48.617188 50.769531 48.660156 50.734375 C 48.675781 50.726562 48.6875 50.714844 48.699219 50.703125 C 48.730469 50.679688 48.757812 50.65625 48.785156 50.632812 C 48.800781 50.625 48.8125 50.609375 48.828125 50.59375 Z M 23.015625 47.847656 C 23.070312 47.820312 23.144531 47.808594 23.210938 47.816406 L 22.15625 48.425781 C 22.152344 48.421875 22.144531 48.421875 22.140625 48.417969 C 22.113281 48.402344 22.109375 48.386719 22.109375 48.382812 C 22.109375 48.382812 22.113281 48.367188 22.144531 48.351562 Z M 22.609375 47.769531 L 21.996094 48.125 C 21.894531 48.183594 21.71875 48.1875 21.605469 48.132812 L 21.21875 47.941406 C 21.167969 47.917969 21.144531 47.890625 21.144531 47.871094 C 21.144531 47.851562 21.167969 47.824219 21.203125 47.804688 L 22.070312 47.304688 C 22.125 47.273438 22.199219 47.257812 22.269531 47.257812 C 22.351562 47.257812 22.433594 47.277344 22.488281 47.3125 L 22.816406 47.539062 C 22.84375 47.558594 22.863281 47.578125 22.859375 47.597656 C 22.859375 47.613281 22.84375 47.636719 22.800781 47.660156 L 22.738281 47.695312 Z M 25.945312 46.214844 C 25.960938 46.214844 25.972656 46.214844 25.988281 46.21875 L 25.660156 46.410156 L 24.933594 46.828125 C 24.929688 46.828125 24.921875 46.824219 24.917969 46.824219 C 24.894531 46.808594 24.886719 46.792969 24.886719 46.789062 C 24.886719 46.785156 24.894531 46.769531 24.921875 46.753906 L 24.925781 46.75 L 25.019531 46.695312 L 25.566406 46.382812 L 25.792969 46.25 C 25.832031 46.226562 25.886719 46.214844 25.945312 46.214844 Z M 25.386719 46.171875 L 24.871094 46.46875 L 24.773438 46.523438 C 24.667969 46.582031 24.496094 46.585938 24.382812 46.53125 L 23.992188 46.339844 C 23.941406 46.316406 23.921875 46.285156 23.921875 46.269531 C 23.921875 46.25 23.945312 46.226562 23.980469 46.203125 L 24.84375 45.707031 C 24.898438 45.671875 24.972656 45.660156 25.046875 45.660156 C 25.128906 45.660156 25.210938 45.675781 25.261719 45.714844 L 25.589844 45.941406 C 25.621094 45.960938 25.636719 45.980469 25.632812 46 C 25.632812 46.015625 25.617188 46.039062 25.578125 46.0625 Z M 28.71875 44.617188 C 28.734375 44.617188 28.75 44.617188 28.765625 44.621094 L 27.710938 45.230469 C 27.707031 45.226562 27.699219 45.226562 27.695312 45.222656 C 27.667969 45.207031 27.664062 45.191406 27.664062 45.1875 C 27.664062 45.183594 27.667969 45.167969 27.699219 45.152344 L 27.703125 45.152344 L 27.925781 45.023438 L 28.347656 44.78125 L 28.570312 44.652344 C 28.609375 44.628906 28.664062 44.617188 28.71875 44.617188 Z M 27.746094 44.8125 L 27.550781 44.925781 C 27.445312 44.984375 27.273438 44.988281 27.160156 44.933594 L 26.773438 44.742188 C 26.722656 44.71875 26.703125 44.691406 26.703125 44.671875 C 26.703125 44.652344 26.722656 44.628906 26.757812 44.605469 L 27.625 44.105469 C 27.738281 44.042969 27.941406 44.046875 28.042969 44.117188 L 28.371094 44.339844 C 28.402344 44.359375 28.417969 44.382812 28.414062 44.398438 C 28.414062 44.414062 28.398438 44.4375 28.355469 44.460938 Z M 31.347656 43.054688 C 31.398438 43.023438 31.476562 43.011719 31.542969 43.019531 L 30.484375 43.628906 C 30.480469 43.628906 30.476562 43.625 30.472656 43.621094 C 30.445312 43.605469 30.4375 43.589844 30.4375 43.589844 C 30.4375 43.585938 30.445312 43.570312 30.476562 43.550781 Z M 31.066406 42.902344 L 30.375 43.300781 L 30.324219 43.324219 C 30.21875 43.386719 30.046875 43.390625 29.9375 43.332031 L 29.546875 43.144531 C 29.496094 43.117188 29.476562 43.085938 29.476562 43.070312 C 29.476562 43.050781 29.496094 43.023438 29.53125 43.003906 L 30.398438 42.503906 C 30.511719 42.4375 30.710938 42.445312 30.8125 42.515625 L 31.144531 42.738281 C 31.171875 42.757812 31.1875 42.78125 31.1875 42.796875 C 31.1875 42.816406 31.164062 42.839844 31.128906 42.859375 Z M 40.828125 35.941406 L 39.753906 36.558594 L 38.554688 35.863281 L 39.628906 35.246094 Z M 39.695312 36.742188 C 39.695312 36.746094 39.691406 36.757812 39.667969 36.769531 C 39.59375 36.808594 39.46875 36.808594 39.398438 36.769531 L 37.929688 35.917969 C 37.890625 35.898438 37.871094 35.871094 37.871094 35.847656 C 37.871094 35.828125 37.894531 35.800781 37.929688 35.777344 L 39.398438 34.933594 C 39.453125 34.902344 39.53125 34.882812 39.605469 34.882812 C 39.683594 34.882812 39.761719 34.902344 39.816406 34.933594 L 41.285156 35.785156 C 41.304688 35.796875 41.3125 35.808594 41.3125 35.8125 C 41.3125 35.8125 41.304688 35.824219 41.28125 35.835938 C 41.210938 35.878906 41.085938 35.878906 41.011719 35.835938 L 39.675781 35.0625 C 39.648438 35.046875 39.613281 35.046875 39.585938 35.0625 L 38.332031 35.785156 C 38.304688 35.800781 38.285156 35.832031 38.285156 35.863281 C 38.285156 35.894531 38.300781 35.921875 38.332031 35.941406 L 39.667969 36.714844 C 39.691406 36.730469 39.695312 36.742188 39.695312 36.742188 Z M 45.882812 40.199219 L 44.683594 39.503906 L 45.757812 38.886719 L 46.960938 39.578125 Z M 47.644531 39.59375 C 47.644531 39.617188 47.621094 39.644531 47.585938 39.664062 L 46.117188 40.507812 C 46.003906 40.574219 45.808594 40.574219 45.695312 40.507812 L 44.230469 39.660156 C 44.207031 39.644531 44.199219 39.636719 44.199219 39.632812 C 44.199219 39.628906 44.207031 39.621094 44.230469 39.605469 C 44.265625 39.585938 44.316406 39.578125 44.367188 39.578125 C 44.417969 39.578125 44.464844 39.585938 44.5 39.605469 L 45.839844 40.382812 C 45.867188 40.398438 45.902344 40.398438 45.929688 40.382812 L 47.1875 39.660156 C 47.214844 39.644531 47.230469 39.613281 47.230469 39.582031 C 47.230469 39.550781 47.214844 39.519531 47.1875 39.503906 L 45.847656 38.730469 C 45.828125 38.714844 45.820312 38.707031 45.820312 38.703125 C 45.820312 38.699219 45.828125 38.691406 45.847656 38.675781 C 45.921875 38.636719 46.046875 38.636719 46.121094 38.675781 L 47.585938 39.527344 C 47.621094 39.546875 47.644531 39.574219 47.644531 39.59375 Z M 37.042969 36.738281 L 38.242188 37.429688 L 37.167969 38.050781 L 35.96875 37.355469 Z M 38.726562 37.300781 C 38.726562 37.304688 38.71875 37.316406 38.695312 37.328125 C 38.621094 37.371094 38.496094 37.371094 38.425781 37.328125 L 37.085938 36.554688 C 37.058594 36.539062 37.023438 36.539062 36.996094 36.554688 L 35.742188 37.277344 C 35.714844 37.292969 35.699219 37.320312 35.699219 37.355469 C 35.699219 37.386719 35.714844 37.414062 35.742188 37.429688 L 37.078125 38.207031 C 37.101562 38.21875 37.109375 38.230469 37.109375 38.230469 C 37.109375 38.234375 37.101562 38.246094 37.078125 38.257812 C 37.007812 38.300781 36.878906 38.300781 36.808594 38.257812 L 35.339844 37.40625 C 35.304688 37.386719 35.28125 37.359375 35.28125 37.339844 C 35.28125 37.316406 35.304688 37.289062 35.34375 37.269531 L 36.808594 36.425781 C 36.921875 36.359375 37.117188 36.359375 37.230469 36.425781 L 38.695312 37.273438 C 38.71875 37.289062 38.726562 37.300781 38.726562 37.300781 Z M 34.453125 38.226562 L 35.652344 38.921875 L 34.578125 39.539062 L 33.378906 38.847656 Z M 36.136719 38.792969 C 36.136719 38.796875 36.128906 38.804688 36.105469 38.820312 C 36.035156 38.859375 35.90625 38.859375 35.835938 38.820312 L 34.5 38.042969 C 34.46875 38.027344 34.4375 38.027344 34.410156 38.042969 L 33.152344 38.765625 C 33.128906 38.78125 33.109375 38.8125 33.109375 38.84375 C 33.109375 38.875 33.125 38.90625 33.152344 38.921875 L 34.492188 39.695312 C 34.511719 39.710938 34.519531 39.71875 34.519531 39.722656 C 34.519531 39.722656 34.511719 39.734375 34.488281 39.75 C 34.417969 39.792969 34.289062 39.792969 34.21875 39.75 L 32.75 38.898438 C 32.714844 38.875 32.691406 38.847656 32.691406 38.828125 C 32.691406 38.804688 32.714844 38.78125 32.753906 38.757812 L 34.21875 37.914062 C 34.335938 37.847656 34.527344 37.847656 34.640625 37.914062 L 36.109375 38.761719 C 36.128906 38.78125 36.136719 38.789062 36.136719 38.792969 Z M 47.75 37.050781 L 46.542969 37.742188 L 43.25 35.832031 L 44.457031 35.140625 Z M 42.765625 35.707031 C 42.765625 35.703125 42.773438 35.695312 42.796875 35.679688 L 44.269531 34.832031 C 44.386719 34.765625 44.578125 34.765625 44.691406 34.832031 L 48.375 36.964844 C 48.414062 36.988281 48.4375 37.015625 48.4375 37.035156 C 48.4375 37.058594 48.414062 37.085938 48.375 37.105469 L 46.898438 37.957031 C 46.828125 38 46.699219 38 46.628906 37.957031 C 46.605469 37.945312 46.601562 37.933594 46.597656 37.929688 C 46.597656 37.929688 46.605469 37.917969 46.628906 37.902344 L 47.976562 37.128906 C 48.003906 37.113281 48.019531 37.082031 48.019531 37.050781 C 48.019531 37.019531 48.003906 36.988281 47.976562 36.972656 L 44.5 34.960938 C 44.488281 34.949219 44.472656 34.945312 44.457031 34.945312 C 44.441406 34.945312 44.425781 34.949219 44.410156 34.960938 L 43.066406 35.734375 C 42.992188 35.777344 42.867188 35.777344 42.796875 35.734375 C 42.773438 35.722656 42.765625 35.710938 42.765625 35.707031 Z M 41.078125 34.636719 C 41.078125 34.492188 41.183594 34.351562 41.375 34.242188 C 41.585938 34.121094 41.863281 34.058594 42.140625 34.058594 C 42.417969 34.058594 42.695312 34.121094 42.90625 34.242188 C 43.09375 34.347656 43.195312 34.488281 43.195312 34.632812 C 43.195312 34.773438 43.089844 34.914062 42.902344 35.023438 C 42.476562 35.265625 41.789062 35.265625 41.371094 35.023438 C 41.183594 34.914062 41.078125 34.777344 41.078125 34.636719 Z M 45.695312 50.074219 C 45.695312 49.847656 45.855469 49.628906 46.148438 49.460938 C 46.464844 49.28125 46.878906 49.1875 47.292969 49.1875 C 47.707031 49.1875 48.121094 49.28125 48.4375 49.460938 C 48.832031 49.6875 48.972656 50.003906 48.824219 50.300781 C 48.75 50.441406 48.617188 50.570312 48.429688 50.679688 C 48.414062 50.6875 48.394531 50.699219 48.375 50.707031 C 47.734375 51.046875 46.753906 51.035156 46.140625 50.679688 C 45.851562 50.515625 45.695312 50.296875 45.695312 50.074219 Z M 43.355469 55.773438 L 39.03125 53.265625 L 40.382812 52.488281 L 44.710938 54.996094 Z M 31.15625 41.242188 L 19.703125 47.835938 L 18.359375 47.058594 L 31.210938 39.660156 L 34.191406 41.386719 L 32.839844 42.167969 L 31.246094 41.242188 C 31.21875 41.226562 31.183594 41.226562 31.15625 41.242188 Z M 51.949219 43.59375 C 51.949219 43.59375 51.949219 43.597656 51.949219 43.597656 L 51.945312 43.78125 C 51.945312 43.785156 51.945312 43.789062 51.945312 43.792969 L 51.945312 44.121094 L 51.941406 44.304688 C 51.941406 44.308594 51.933594 44.324219 51.910156 44.339844 C 51.871094 44.363281 51.820312 44.371094 51.769531 44.375 L 51.773438 43.914062 L 51.773438 43.523438 C 51.878906 43.527344 51.9375 43.570312 51.949219 43.59375 Z M 51.578125 43.59375 C 51.578125 43.59375 51.582031 43.585938 51.59375 43.574219 L 51.589844 43.832031 L 51.589844 44.320312 C 51.582031 44.316406 51.578125 44.308594 51.574219 44.304688 Z M 52.859375 43.492188 L 53.285156 43.738281 L 53.28125 44.300781 C 53.28125 44.320312 53.257812 44.347656 53.222656 44.367188 C 53.164062 44.402344 53.082031 44.417969 52.996094 44.414062 L 52.484375 44.390625 C 52.34375 44.382812 52.253906 44.320312 52.253906 44.277344 L 52.253906 43.796875 C 52.253906 43.792969 52.253906 43.789062 52.253906 43.785156 L 52.253906 43.621094 C 52.257812 43.601562 52.28125 43.578125 52.3125 43.558594 C 52.359375 43.53125 52.421875 43.515625 52.492188 43.511719 Z M 52.835938 50.105469 C 52.835938 50.109375 52.828125 50.125 52.800781 50.140625 C 52.796875 50.140625 52.789062 50.144531 52.785156 50.148438 L 52.265625 49.84375 L 51.734375 49.535156 C 51.804688 49.527344 51.882812 49.539062 51.933594 49.570312 L 52.800781 50.070312 C 52.828125 50.085938 52.835938 50.101562 52.835938 50.105469 Z M 53.800781 49.585938 C 53.800781 49.605469 53.777344 49.632812 53.726562 49.660156 L 53.335938 49.851562 C 53.222656 49.90625 53.050781 49.90625 52.945312 49.84375 L 52.339844 49.492188 L 52.144531 49.378906 C 52.113281 49.359375 52.089844 49.335938 52.089844 49.316406 C 52.089844 49.300781 52.105469 49.277344 52.132812 49.257812 L 52.464844 49.03125 L 52.480469 49.023438 C 52.589844 48.960938 52.777344 48.960938 52.882812 49.023438 L 53.742188 49.519531 C 53.777344 49.542969 53.800781 49.566406 53.800781 49.585938 Z M 52.683594 41.617188 L 57.007812 44.121094 L 55.652344 44.902344 L 51.328125 42.394531 Z M 33.570312 42.9375 L 33.320312 42.792969 L 34.976562 41.839844 L 36.125 42.503906 L 34.46875 43.457031 L 34.128906 43.257812 Z M 33.527344 43.117188 L 33.90625 43.335938 L 33.855469 43.363281 L 33.476562 43.144531 Z M 35.175781 43.863281 L 34.925781 43.71875 L 36.578125 42.769531 L 37.726562 43.433594 L 36.074219 44.386719 L 35.734375 44.1875 Z M 35.128906 44.046875 L 35.507812 44.265625 L 35.460938 44.292969 L 35.082031 44.074219 Z M 36.78125 44.792969 L 36.527344 44.648438 L 38.183594 43.699219 L 39.332031 44.363281 L 37.675781 45.316406 L 37.335938 45.117188 Z M 36.734375 44.976562 L 37.109375 45.195312 L 37.0625 45.222656 L 36.683594 45.003906 Z M 40.585938 49.910156 L 43.847656 51.804688 L 42.515625 52.570312 L 39.25 50.679688 Z M 43.144531 51.027344 L 44.167969 51.621094 L 44.015625 51.707031 C 44.011719 51.695312 44 51.683594 43.984375 51.675781 L 40.765625 49.808594 L 40.902344 49.726562 L 41.59375 50.128906 L 41.6875 50.183594 L 43.054688 50.976562 Z M 42.148438 50.242188 L 41.820312 50.050781 L 41.871094 50.023438 L 42.199219 50.214844 Z M 43.613281 51.089844 L 43.28125 50.898438 L 43.332031 50.871094 L 43.664062 51.058594 Z M 46.207031 54.710938 L 42.941406 52.820312 L 44.28125 52.050781 C 44.285156 52.054688 44.289062 52.058594 44.296875 52.0625 L 47.539062 53.941406 Z M 47.675781 53.8125 L 44.457031 51.949219 L 44.59375 51.871094 L 47.859375 53.761719 L 47.710938 53.847656 C 47.703125 53.832031 47.691406 53.824219 47.675781 53.8125 Z M 45.84375 52.382812 L 45.511719 52.191406 L 45.5625 52.164062 L 45.894531 52.351562 Z M 47.304688 53.230469 L 46.972656 53.039062 L 47.023438 53.007812 L 47.355469 53.199219 Z M 63.113281 44.074219 L 61.609375 44.941406 L 61.28125 44.75 L 61.242188 44.726562 L 62.210938 44.167969 C 62.222656 44.160156 62.234375 44.148438 62.242188 44.132812 L 62.671875 43.332031 L 62.71875 43.242188 L 63.394531 43.636719 L 63.636719 43.777344 Z M 62.039062 44.054688 L 61.0625 44.621094 L 60.5625 44.332031 L 60.539062 44.316406 L 61.082031 44.003906 L 61.773438 43.605469 Z M 59.675781 43.816406 L 59.453125 43.6875 L 58.839844 43.332031 L 57.847656 42.757812 L 58.609375 42.320312 L 59.875 41.59375 L 62.035156 42.84375 L 62.367188 43.035156 L 61.609375 43.058594 C 61.597656 43.058594 61.582031 43.0625 61.570312 43.070312 C 61.566406 43.074219 61.5625 43.078125 61.558594 43.078125 C 61.554688 43.082031 61.550781 43.082031 61.546875 43.085938 L 61.292969 42.9375 C 61.265625 42.921875 61.230469 42.921875 61.203125 42.9375 Z M 59.742188 41.460938 L 57.621094 42.679688 L 57.617188 42.679688 L 57.558594 42.648438 L 59.683594 41.421875 Z M 61.613281 42.390625 L 60.429688 41.707031 L 60.488281 41.671875 L 61.671875 42.355469 Z M 63.441406 43.453125 L 62.257812 42.765625 L 62.316406 42.730469 L 63.5 43.417969 Z M 58.042969 43.078125 L 59.226562 43.765625 L 59.164062 43.796875 L 57.980469 43.113281 Z M 60.359375 44.421875 L 61.054688 44.824219 L 60.996094 44.859375 L 60.296875 44.453125 Z M 63.867188 43.847656 L 63.925781 43.882812 L 63.792969 43.960938 L 63.648438 44.042969 L 62.195312 44.878906 L 62.023438 44.976562 L 61.800781 45.105469 L 61.742188 45.074219 L 63.863281 43.851562 Z M 62.019531 43.414062 C 62.019531 43.378906 62.003906 43.351562 61.972656 43.335938 L 61.800781 43.234375 L 62.53125 43.210938 L 62.160156 43.90625 L 61.929688 43.515625 L 61.972656 43.488281 C 62 43.472656 62.019531 43.445312 62.019531 43.414062 Z M 61.746094 43.414062 L 59.984375 44.425781 L 59.484375 44.136719 L 61.246094 43.121094 Z M 63.640625 41.535156 L 61.8125 40.476562 L 63.367188 39.582031 L 63.835938 39.3125 L 66.097656 40.621094 L 66.328125 40.753906 L 65.570312 40.777344 C 65.558594 40.777344 65.546875 40.78125 65.53125 40.789062 C 65.527344 40.792969 65.527344 40.792969 65.523438 40.796875 C 65.519531 40.800781 65.515625 40.800781 65.511719 40.804688 L 65.253906 40.660156 C 65.226562 40.640625 65.191406 40.640625 65.164062 40.660156 Z M 66.003906 41.773438 L 65.027344 42.339844 L 64.726562 42.164062 L 64.5 42.035156 L 65.738281 41.324219 Z M 67.597656 41.492188 L 65.574219 42.65625 L 65.246094 42.464844 L 65.207031 42.441406 L 66.171875 41.886719 C 66.175781 41.886719 66.175781 41.882812 66.175781 41.882812 C 66.183594 41.878906 66.191406 41.871094 66.195312 41.859375 L 66.492188 41.296875 L 66.667969 40.96875 L 67.007812 41.164062 L 67.34375 41.359375 Z M 63.707031 39.179688 L 61.585938 40.398438 L 61.582031 40.402344 L 61.523438 40.367188 L 63.648438 39.144531 Z M 65.574219 40.109375 L 64.390625 39.421875 L 64.449219 39.390625 L 65.636719 40.074219 Z M 66.683594 40.753906 L 66.21875 40.484375 L 66.28125 40.449219 L 67.464844 41.136719 L 67.402344 41.171875 L 66.6875 40.753906 C 66.6875 40.753906 66.6875 40.753906 66.683594 40.753906 Z M 62.007812 40.796875 L 63.191406 41.484375 L 63.128906 41.515625 L 61.945312 40.832031 Z M 64.320312 42.136719 L 65.019531 42.542969 L 64.957031 42.574219 L 64.261719 42.171875 Z M 67.828125 41.566406 L 67.890625 41.601562 L 67.753906 41.679688 L 67.601562 41.765625 L 66.160156 42.59375 L 65.765625 42.824219 L 65.707031 42.789062 L 67.824219 41.570312 Z M 65.984375 41.128906 C 65.984375 41.097656 65.964844 41.066406 65.9375 41.050781 L 65.765625 40.953125 L 66.492188 40.929688 L 66.121094 41.621094 L 65.894531 41.230469 L 65.9375 41.207031 C 65.964844 41.191406 65.984375 41.160156 65.984375 41.128906 Z M 65.710938 41.128906 L 63.949219 42.144531 L 63.445312 41.855469 L 65.210938 40.839844 Z M 69.96875 39.492188 L 68.988281 40.058594 L 68.464844 39.753906 L 69.703125 39.042969 Z M 67.601562 39.253906 L 65.777344 38.195312 L 66.679688 37.671875 L 67.800781 37.03125 L 68.128906 37.222656 L 68.21875 37.273438 L 70.292969 38.472656 L 69.535156 38.496094 C 69.519531 38.496094 69.507812 38.503906 69.496094 38.511719 C 69.492188 38.511719 69.488281 38.515625 69.488281 38.515625 C 69.484375 38.519531 69.476562 38.523438 69.472656 38.527344 L 69.21875 38.378906 C 69.191406 38.359375 69.15625 38.359375 69.128906 38.378906 Z M 70.65625 39.730469 L 69.539062 40.375 L 69.167969 40.160156 L 70.136719 39.605469 C 70.144531 39.601562 70.148438 39.597656 70.15625 39.589844 C 70.15625 39.589844 70.160156 39.585938 70.160156 39.582031 L 70.242188 39.425781 L 70.632812 38.691406 L 71.113281 38.96875 L 71.3125 39.082031 L 71.550781 39.222656 Z M 67.667969 36.894531 L 65.546875 38.117188 L 65.542969 38.117188 L 65.484375 38.085938 L 67.609375 36.859375 Z M 69.539062 37.828125 L 68.355469 37.140625 L 68.417969 37.109375 L 69.601562 37.792969 Z M 70.652344 38.472656 L 70.1875 38.203125 L 70.246094 38.167969 L 71.429688 38.851562 L 71.371094 38.886719 L 70.65625 38.472656 C 70.652344 38.472656 70.652344 38.472656 70.652344 38.472656 Z M 65.96875 38.515625 L 67.15625 39.203125 L 67.09375 39.234375 L 65.910156 38.550781 Z M 68.945312 40.238281 L 68.984375 40.261719 L 68.921875 40.292969 L 68.222656 39.890625 L 68.285156 39.855469 Z M 71.792969 39.285156 L 71.851562 39.316406 L 71.71875 39.394531 L 71.546875 39.492188 L 69.726562 40.542969 L 69.667969 40.507812 L 71.789062 39.289062 Z M 69.945312 38.847656 C 69.945312 38.816406 69.929688 38.785156 69.902344 38.769531 L 69.726562 38.667969 L 70.457031 38.648438 L 70.089844 39.339844 L 69.859375 38.949219 L 69.902344 38.925781 C 69.929688 38.910156 69.945312 38.878906 69.945312 38.847656 Z M 69.675781 38.847656 L 67.914062 39.863281 L 67.410156 39.570312 L 69.175781 38.558594 Z M 21.757812 49.5 L 24.695312 51.203125 L 24.367188 51.390625 L 21.429688 49.6875 Z M 33.230469 37.902344 L 32.902344 37.714844 L 35.863281 36.011719 L 36.1875 36.203125 Z M 58.636719 47.800781 L 58.960938 47.992188 L 56.003906 49.691406 L 55.675781 49.503906 Z M 71.65625 38.199219 L 68.71875 36.496094 L 69.046875 36.308594 L 71.984375 38.007812 Z M 44.636719 55.863281 L 44.960938 56.050781 L 42.003906 57.75 L 41.679688 57.5625 Z M 37.949219 35.1875 L 37.625 34.996094 L 40.582031 33.296875 L 40.90625 33.484375 Z M 37.949219 35.1875 " fill-opacity="1" fill-rule="nonzero"/></g></svg>