<?xml version="1.0" encoding="UTF-8"?>
<svg id="Capa_1" xmlns="http://www.w3.org/2000/svg" xmlns:xlink="http://www.w3.org/1999/xlink" viewBox="0 0 1007.43 355.64">
  <defs>
    <style>
      .cls-1 {
        fill: url(#linear-gradient);
      }

      .cls-1, .cls-2, .cls-3, .cls-4, .cls-5, .cls-6, .cls-7, .cls-8 {
        stroke-width: 0px;
      }

      .cls-2 {
        fill: url(#linear-gradient-6);
      }

      .cls-3 {
        fill: url(#linear-gradient-5);
      }

      .cls-4 {
        fill: #fff;
      }

      .cls-5 {
        fill: url(#linear-gradient-2);
      }

      .cls-6 {
        fill: url(#linear-gradient-3);
      }

      .cls-7 {
        fill: url(#linear-gradient-4);
      }

      .cls-8 {
        fill: #575756;
      }
    </style>
    <linearGradient id="linear-gradient" x1="168.16" y1="127.12" x2="267.92" y2="127.12" gradientUnits="userSpaceOnUse">
      <stop offset="0" stop-color="#d51224" />
      <stop offset=".13" stop-color="#d61d21" />
      <stop offset=".35" stop-color="#dc3b1a" />
      <stop offset=".65" stop-color="#e46c0f" />
      <stop offset="1" stop-color="#f0ae00" />
    </linearGradient>
    <linearGradient id="linear-gradient-2" x1="168.16" y1="211.85" x2="291.23" y2="211.85" gradientUnits="userSpaceOnUse">
      <stop offset="0" stop-color="#00718b" stop-opacity=".5" />
      <stop offset="1" stop-color="#78c7c9" stop-opacity=".5" />
    </linearGradient>
    <linearGradient id="linear-gradient-3" x1="110.7" y1="192.73" x2="210.46" y2="192.73" gradientUnits="userSpaceOnUse">
      <stop offset="0" stop-color="#78c7c9" />
      <stop offset="1" stop-color="#00718b" />
    </linearGradient>
    <linearGradient id="linear-gradient-4" x1="267.92" y1="228.52" x2="344.56" y2="228.52" xlink:href="#linear-gradient-3" />
    <linearGradient id="linear-gradient-5" x1="153.01" y1="146.23" x2="229" y2="146.23" gradientUnits="userSpaceOnUse">
      <stop offset="0" stop-color="#f0ae00" stop-opacity=".4" />
      <stop offset=".08" stop-color="#ed9f03" stop-opacity=".4" />
      <stop offset=".69" stop-color="#db391a" stop-opacity=".4" />
      <stop offset="1" stop-color="#d51224" stop-opacity=".4" />
    </linearGradient>
    <linearGradient id="linear-gradient-6" x1="76.37" y1="238.03" x2="153" y2="238.03" gradientUnits="userSpaceOnUse">
      <stop offset="0" stop-color="#78c7c9" stop-opacity=".5" />
      <stop offset=".91" stop-color="#0b7991" stop-opacity=".5" />
      <stop offset="1" stop-color="#00718b" stop-opacity=".5" />
    </linearGradient>
  </defs>
  <g>
    <path class="cls-8" d="m409.14,160.06c-5.77,6.86-9.75,9.83-18.95,9.83-16.15,0-23.32-13.34-23.32-27.93s7.1-27.93,23.32-27.93c8.35,0,13.42,2.89,18.64,9.21l-6.94,6.79c-3.28-3.74-6.4-6.32-11.7-6.32-10.3,0-13.34,9.83-13.34,18.25s3.04,18.25,13.34,18.25c5.46,0,8.74-2.73,12.01-6.79l6.94,6.63Z" />
    <path class="cls-8" d="m456.48,169.19h-36.82v-54.45h36.82v9.67h-26.99v12.17h23.56v9.21h-23.56v13.73h26.99v9.67Z" />
    <path class="cls-8" d="m508.27,169.19h-8.03l-21.61-34.09v34.09h-9.83v-54.45h8.11l21.61,34.09v-34.09h9.75v54.45Z" />
    <path class="cls-8" d="m560.14,124.42h-15.68v44.77h-9.83v-44.77h-15.68v-9.67h41.19v9.67Z" />
    <path class="cls-8" d="m580.89,169.19h-9.83v-54.45h9.83v54.45Z" />
    <path class="cls-8" d="m634.55,169.19h-8.03l-21.61-34.09v34.09h-9.83v-54.45h8.11l21.61,34.09v-34.09h9.75v54.45Z" />
    <path class="cls-8" d="m685.33,169.19h-36.82v-54.45h36.82v9.67h-26.99v12.17h23.56v9.21h-23.56v13.73h26.99v9.67Z" />
    <path class="cls-8" d="m731.27,169.19h-33.62v-54.45h9.75v45.01h23.87v9.44Z" />
    <path class="cls-8" d="m789.77,169.19h-10.61l-5.23-14.2h-19.19l-5.15,14.2h-10.61l20.9-54.45h8.81l21.06,54.45Zm-18.95-22.78l-6.47-17.55-6.4,17.55h12.87Z" />
  </g>
  <g>
    <path class="cls-4" d="m341.1,249.16h0s-49.87-71.34-49.87-71.34l-23.31-33.34-41.83-59.84h0c-3.43-4.93-9.11-8.17-15.56-8.21h-.13c-6.45.05-12.14,3.28-15.56,8.21h0l-26.67,38.15h0l-15.16,21.68h0l-42.3,60.5-30.88,44.18s0,0,0,0c-6.04,8.65-3.94,20.56,4.72,26.6,8.64,6.05,20.55,3.94,26.6-4.71h0s41.87-59.89,41.87-59.89l15.16,21.69,26.67,38.15h0c3.42,4.93,9.11,8.17,15.56,8.22h.13c6.45-.04,12.14-3.29,15.56-8.22h0l41.83-59.83,41.87,59.88s0,0,0,0c6.04,8.65,17.95,10.76,26.6,4.71,8.65-6.04,10.76-17.96,4.71-26.6Zm-130.26-23.05l-.38.56h0s-34.15-48.85-34.15-48.85l34.15-48.85h0l.38.55,33.76,48.3-33.76,48.29Z" />
    <g>
      <path class="cls-1" d="m187.05,114.65c8.97,0,16.85,4.58,21.49,11.52.65.97,1.92,2.8,1.92,2.8l.38.55,33.76,48.3,23.31-33.34-41.83-59.84h0c-3.43-4.93-9.11-8.17-15.56-8.21h-.13c-6.45.05-12.14,3.28-15.56,8.21h0l-26.67,38.15h0c4.72-5,11.46-8.14,18.88-8.14Z" />
      <path class="cls-5" d="m187.05,240.99c8.97,0,16.85-4.58,21.49-11.52.65-.97,1.92-2.8,1.92-2.8l.38-.56,57.08-81.64,23.31,33.34-65.14,93.18h0c-3.43,4.93-9.11,8.17-15.56,8.22h-.13c-6.45-.04-12.14-3.29-15.56-8.22h0l-26.67-38.15h0c4.72,5.01,11.46,8.14,18.88,8.14Z" />
      <path class="cls-6" d="m168.16,232.85h0c4.72,5.01,11.46,8.14,18.88,8.14,8.97,0,16.85-4.58,21.49-11.52.65-.97,1.92-2.8,1.92-2.8h0s-41.83-59.84-41.83-59.84h0l-15.63-22.36-42.3,60.5c4.72-5,11.46-8.13,18.88-8.13,8.3,0,15.67,3.92,20.39,9.99l3.02,4.33,15.16,21.69h0Z" />
      <path class="cls-7" d="m341.1,249.16h0s-49.87-71.34-49.87-71.34l-23.31,33.34,41.87,59.88h0s0,0,0,0c6.04,8.65,17.95,10.76,26.6,4.71,8.65-6.04,10.76-17.96,4.71-26.6Z" />
      <path class="cls-3" d="m210.46,128.97h0s-1.28-1.83-1.92-2.8c-4.64-6.94-12.52-11.52-21.49-11.52-7.42,0-14.16,3.14-18.88,8.14h0l-15.16,21.69,23.31,33.34,34.15-48.85Z" />
      <path class="cls-2" d="m129.59,196.84c-7.42,0-14.16,3.13-18.88,8.13h0l-30.88,44.18s0,0,0,0c-6.04,8.65-3.94,20.56,4.72,26.6,8.64,6.05,20.55,3.94,26.6-4.71h0s41.87-59.89,41.87-59.89l-3.02-4.33c-4.72-6.08-12.09-9.99-20.39-9.99Z" />
    </g>
  </g>
  <rect class="cls-8" x="363.83" y="186.38" width="567.24" height="3.24" />
  <g>
    <path class="cls-8" d="m392.95,240.57h-4.37l-3.61-9.27h-13.2l-3.6,9.27h-4.34l12.51-32.01h4.09l12.53,32.01Zm-9.45-13.11l-5.14-13.02-5.08,13.02h10.22Z" />
    <path class="cls-8" d="m421.6,240.57h-3.8l-14.63-23.97v23.97h-4.04v-32.01h3.82l14.67,23.99v-23.99h3.98v32.01Z" />
    <path class="cls-8" d="m451.79,212.51h-9.77v28.06h-4.04v-28.06h-9.75v-3.95h23.57v3.95Z" />
    <path class="cls-8" d="m481.78,224.56c0,4.73-.85,8.35-2.57,10.92-2.41,3.67-5.89,5.51-10.4,5.51s-8.01-1.84-10.43-5.51c-1.7-2.57-2.55-6.19-2.55-10.92s.85-8.34,2.55-10.92c2.45-3.66,5.93-5.48,10.43-5.48s7.99,1.82,10.4,5.48c1.71,2.58,2.57,6.22,2.57,10.92Zm-4.04,0c0-3.94-.64-6.85-1.92-8.75-1.63-2.45-3.97-3.67-7.01-3.67s-5.39,1.22-7.03,3.67c-1.28,1.9-1.92,4.81-1.92,8.75s.65,6.85,1.92,8.76c1.64,2.45,3.97,3.66,7.03,3.66s5.38-1.21,7.01-3.66c1.28-1.92,1.92-4.84,1.92-8.76Z" />
    <path class="cls-8" d="m509.01,212.51h-16.38v9.67h14.68v3.72h-14.68v14.67h-3.98v-32.01h20.37v3.95Z" />
    <path class="cls-8" d="m539.59,240.57h-4.35l-3.64-9.27h-13.2l-3.58,9.27h-4.33l12.51-32.01h4.07l12.52,32.01Zm-9.44-13.11l-5.14-13.02-5.1,13.02h10.24Z" />
    <path class="cls-8" d="m567.61,223.15l-.04,17.42h-3.62v-3.3c-.89,1.41-1.97,2.4-3.25,2.99-1.14.49-2.6.74-4.41.74-4.4,0-7.71-1.72-9.94-5.15-1.89-2.9-2.82-6.66-2.82-11.28s.96-8.45,2.86-11.31c2.26-3.39,5.61-5.08,10.06-5.08,2.28,0,4.26.52,5.98,1.55,1.43.85,2.96,2.26,4.58,4.21l-3.07,2.53c-1.21-1.48-2.29-2.51-3.21-3.14-1.22-.78-2.64-1.18-4.28-1.18-5.92,0-8.88,4.15-8.88,12.42s2.9,12.43,8.71,12.43c2.61,0,4.51-1.06,5.73-3.21,1.01-1.71,1.52-3.96,1.52-6.79h-7.95v-3.85h12.02Z" />
    <path class="cls-8" d="m602.46,240.57h-4.35l-3.62-9.27h-13.21l-3.59,9.27h-4.35l12.51-32.01h4.09l12.51,32.01Zm-9.44-13.11l-5.14-13.02-5.09,13.02h10.23Z" />
    <path class="cls-8" d="m631.53,231.27c0,2.98-1.19,5.41-3.57,7.25-2.18,1.64-4.81,2.47-7.94,2.47-7.32,0-11.54-3.33-12.7-9.96l3.97-.69c.44,2.42,1.39,4.16,2.9,5.23,1.35.94,3.3,1.42,5.83,1.42,1.98,0,3.67-.44,5.04-1.32,1.62-1.07,2.44-2.54,2.44-4.4,0-2.32-1.65-4.01-4.91-5.04-3.02-.87-6.03-1.73-9.08-2.62-3.27-1.41-4.9-3.74-4.9-7,0-2.77,1.09-4.89,3.3-6.39,1.93-1.3,4.33-1.98,7.2-1.98s5.31.56,7.1,1.69c1.81,1.11,3.34,2.96,4.6,5.58l-3.67,1.68c-.93-1.9-1.96-3.2-3.08-3.91-1.14-.7-2.78-1.04-4.96-1.04-4.31,0-6.46,1.44-6.46,4.37,0,1.86,1.64,3.26,4.91,4.21,5.66,1.64,8.66,2.59,9.09,2.79,3.26,1.62,4.9,4.18,4.9,7.66Z" />
    <path class="cls-8" d="m659.09,212.51h-9.76v28.06h-4.03v-28.06h-9.77v-3.95h23.57v3.95Z" />
    <path class="cls-8" d="m688.26,240.57h-4.36l-3.63-9.27h-13.19l-3.59,9.27h-4.36l12.52-32.01h4.09l12.52,32.01Zm-9.46-13.11l-5.13-13.02-5.09,13.02h10.22Z" />
    <path class="cls-8" d="m736.59,240.57h-4.04v-20.63l-7.69,20.63h-3.52l-7.67-20.49v20.49h-4.03v-32.01h3.34l10.14,25.99,9.67-25.99h3.8v32.01Z" />
    <path class="cls-8" d="m750.25,240.57h-4.16v-32.01h4.16v32.01Z" />
    <path class="cls-8" d="m782.13,240.57h-3.81l-14.63-23.97v23.97h-4.04v-32.01h3.81l14.68,23.99v-23.99h3.99v32.01Z" />
    <path class="cls-8" d="m812.11,240.57h-20.82v-32.01h20.82v3.95h-16.83v9.71h14.71v3.68h-14.71v10.74h16.83v3.94Z" />
    <path class="cls-8" d="m843.12,240.57h-4.51l-6.88-11.78c-.88-1.48-2.02-2.23-3.43-2.23h-4.19v14.02h-3.94v-32.01h11.14c3.17,0,5.68.69,7.52,2.07,2.05,1.54,3.07,3.86,3.07,6.91,0,2.24-.66,4.19-1.98,5.87-1.34,1.69-3.1,2.71-5.3,3.09.21.24.49.63.86,1.14l7.62,12.92Zm-5.14-23.02c0-3.39-2.21-5.08-6.65-5.08h-7.2v10.64h7.35c4.33,0,6.5-1.84,6.5-5.55Z" />
    <path class="cls-8" d="m876.59,240.57h-4.37l-3.62-9.27h-13.21l-3.57,9.27h-4.37l12.53-32.01h4.08l12.52,32.01Zm-9.45-13.11l-5.14-13.02-5.09,13.02h10.23Z" />
    <path class="cls-8" d="m901.81,240.57h-18.94v-32.01h3.99v28.07h14.95v3.94Z" />
    <path class="cls-8" d="m931.07,231.27c0,2.98-1.19,5.41-3.58,7.25-2.15,1.64-4.8,2.47-7.94,2.47-7.3,0-11.53-3.33-12.7-9.96l4-.69c.43,2.42,1.39,4.16,2.89,5.23,1.34.94,3.29,1.42,5.82,1.42,2.01,0,3.68-.44,5.06-1.32,1.61-1.07,2.42-2.54,2.42-4.4,0-2.32-1.64-4.01-4.9-5.04-3.05-.87-6.06-1.73-9.08-2.62-3.27-1.41-4.92-3.74-4.92-7,0-2.77,1.12-4.89,3.31-6.39,1.93-1.3,4.32-1.98,7.21-1.98s5.3.56,7.1,1.69c1.8,1.11,3.32,2.96,4.58,5.58l-3.67,1.68c-.91-1.9-1.95-3.2-3.07-3.91-1.13-.7-2.79-1.04-4.95-1.04-4.31,0-6.48,1.44-6.48,4.37,0,1.86,1.65,3.26,4.9,4.21,5.67,1.64,8.69,2.59,9.1,2.79,3.26,1.62,4.9,4.18,4.9,7.66Z" />
  </g>
</svg>