<svg width="210" height="46" viewBox="0 0 210 46" fill="none" xmlns="http://www.w3.org/2000/svg">
<path d="M33.9646 4.87366C39.2247 7.16585 42.8994 12.4033 42.8994 18.4996C42.8994 24.5945 39.2247 29.8348 33.9646 32.127C46.2146 30.608 54.283 24.5288 54.283 18.4996C54.283 12.4719 46.2146 6.38988 33.9646 4.87366ZM13.1336 18.4996C13.1336 12.4033 16.8098 7.16585 22.0698 4.87366C9.81977 6.38988 1.75143 12.4719 1.75143 18.4996C1.75143 24.5288 9.81834 30.608 22.0683 32.127C16.8083 29.8348 13.1336 24.5945 13.1336 18.4996ZM30.6436 34.1649V37.7303H42.0258V41.2272H30.6436V42.9764H25.3908V41.2272H14.0086V37.7303H25.3908V34.1649C11.1487 33.4232 0 26.6924 0 18.4996C0 9.80959 12.5422 2.76581 28.0158 2.76581C43.4894 2.76581 56.033 9.80959 56.033 18.4996C56.033 26.6924 44.8857 33.4232 30.6436 34.1649Z" fill="#E55302"/>
<path d="M62.6898 22.6277C62.6898 19.6538 63.7753 17.1301 65.9478 15.0623C68.3036 12.8287 71.3754 11.7126 75.169 11.7126C78.1534 11.7126 80.661 12.3314 82.6874 13.5732V18.2905C80.1526 16.84 77.7682 16.1184 75.5341 16.1184C73.323 16.1184 71.5186 16.7157 70.1166 17.9161C68.716 19.1137 68.0172 20.6542 68.0172 22.5362C68.0172 24.4369 68.7117 25.9917 70.1037 27.2035C71.4914 28.4111 73.2643 29.017 75.4124 29.017C76.6526 29.017 77.8684 28.8112 79.0671 28.3968C79.8762 28.1281 81.1665 27.5608 82.9337 26.6905V31.3106C80.2529 32.7168 77.5333 33.4213 74.7737 33.4213C70.9587 33.4213 67.9355 32.3052 65.7029 30.0716C63.6937 28.0652 62.6898 25.5844 62.6898 22.6277Z" fill="#E55302"/>
<path d="M107.591 22.5662C107.591 25.4401 106.566 27.9323 104.518 30.0402C102.293 32.2924 99.4413 33.4213 95.9614 33.4213C92.4227 33.4213 89.5485 32.2838 87.3431 30.0102C85.3167 27.9423 84.2999 25.4615 84.2999 22.5662C84.2999 19.7553 85.2852 17.3059 87.2529 15.2181C89.4611 12.8801 92.3625 11.7126 95.9614 11.7126C99.5587 11.7126 102.45 12.8801 104.64 15.2181C106.607 17.3274 107.591 19.7767 107.591 22.5662ZM102.371 22.5662C102.371 20.6242 101.786 19.0622 100.614 17.8833C99.4413 16.7057 97.8875 16.1184 95.9614 16.1184C94.0323 16.1184 92.4771 16.7057 91.2942 17.8833C90.1113 19.0622 89.5199 20.6242 89.5199 22.5662C89.5199 24.5112 90.1113 26.0717 91.2942 27.2507C92.4771 28.4296 94.0323 29.0184 95.9614 29.0184C97.8875 29.0184 99.4413 28.4296 100.614 27.2507C101.786 26.0717 102.371 24.5112 102.371 22.5662Z" fill="#E55302"/>
<path d="M109.204 11.994H118.367C122 11.994 124.861 13.0372 126.95 15.1279C128.877 17.0485 129.84 19.5422 129.84 22.599C129.84 25.7829 128.868 28.298 126.919 30.1358C124.809 32.1407 121.763 33.1425 117.787 33.1425H109.204V11.994ZM114.377 15.8681V29.2655H117.756C120.132 29.2655 121.907 28.5324 123.085 27.0633C124.038 25.8886 124.514 24.3881 124.514 22.5675C124.514 20.6026 123.987 19.0335 122.932 17.8545C121.756 16.5326 120.011 15.8681 117.695 15.8681H114.377Z" fill="#E55302"/>
<path d="M146.882 29.2655V33.1425H131.57V11.994H146.669V15.8681H136.745V20.3039H146.213V24.1823H136.745V29.2655H146.882Z" fill="#E55302"/>
<path d="M164.562 29.2655V33.1425H148.733V11.994H153.908V29.2655H164.562Z" fill="#E55302"/>
<path d="M185.024 26.6905V31.3106C182.343 32.7154 179.624 33.4213 176.863 33.4213C173.051 33.4213 170.026 32.3052 167.792 30.0716C165.786 28.0652 164.78 25.5844 164.78 22.6277C164.78 19.6538 165.864 17.1301 168.038 15.0623C170.391 12.8273 173.466 11.7126 177.257 11.7126C180.244 11.7126 182.749 12.3314 184.778 13.5718V18.2905C182.242 16.84 179.857 16.1184 177.625 16.1184C175.412 16.1184 173.608 16.7157 172.207 17.9161C170.805 19.1137 170.106 20.6542 170.106 22.5348C170.106 24.4369 170.802 25.9917 172.193 27.2035C173.582 28.4111 175.35 29.017 177.504 29.017C178.742 29.017 179.959 28.8112 181.156 28.3968C181.967 28.1281 183.258 27.5593 185.024 26.6905Z" fill="#E55302"/>
<path d="M209.68 22.5662C209.68 25.4401 208.656 27.9323 206.608 30.0402C204.383 32.2924 201.529 33.4213 198.052 33.4213C194.513 33.4213 191.638 32.2838 189.432 30.0102C187.406 27.9423 186.39 25.4615 186.39 22.5662C186.39 19.7553 187.374 17.3059 189.342 15.2181C191.552 12.8801 194.454 11.7126 198.052 11.7126C201.649 11.7126 204.541 12.8801 206.729 15.2181C208.696 17.3274 209.68 19.7767 209.68 22.5662ZM204.46 22.5662C204.46 20.6242 203.876 19.0622 202.7 17.8833C201.529 16.7057 199.978 16.1184 198.052 16.1184C196.123 16.1184 194.566 16.7057 193.383 17.8833C192.202 19.0622 191.609 20.6242 191.609 22.5662C191.609 24.5112 192.202 26.0717 193.383 27.2507C194.566 28.4296 196.123 29.0184 198.052 29.0184C199.978 29.0184 201.529 28.4296 202.7 27.2507C203.876 26.0717 204.46 24.5112 204.46 22.5662Z" fill="#E55302"/>
</svg>
